<svg width="90" height="16" viewBox="0 0 90 16" fill="none" xmlns="http://www.w3.org/2000/svg">
<path d="M0 0H90V16H0V0Z" stroke="#E5E7EB"/>
<g clip-path="url(#clip0_558_3438)">
<g clip-path="url(#clip1_558_3438)">
<path d="M9.90254 0.5625C9.73692 0.21875 9.38692 0 9.00255 0C8.61817 0 8.27129 0.21875 8.10254 0.5625L6.09317 4.69688L1.60567 5.35938C1.23067 5.41563 0.91817 5.67812 0.802545 6.0375C0.68692 6.39687 0.78067 6.79375 1.04942 7.05937L4.30567 10.2812L3.53692 14.8344C3.47442 15.2094 3.63067 15.5906 3.94005 15.8125C4.24942 16.0344 4.65879 16.0625 4.99629 15.8844L9.00567 13.7437L13.015 15.8844C13.3525 16.0625 13.7619 16.0375 14.0713 15.8125C14.3807 15.5875 14.5369 15.2094 14.4744 14.8344L13.7025 10.2812L16.9588 7.05937C17.2275 6.79375 17.3244 6.39687 17.2057 6.0375C17.0869 5.67812 16.7775 5.41563 16.4025 5.35938L11.9119 4.69688L9.90254 0.5625Z" fill="#FBBF24"/>
</g>
</g>
<g clip-path="url(#clip2_558_3438)">
<g clip-path="url(#clip3_558_3438)">
<path d="M27.9025 0.5625C27.7369 0.21875 27.3869 0 27.0025 0C26.6182 0 26.2713 0.21875 26.1025 0.5625L24.0932 4.69688L19.6057 5.35938C19.2307 5.41563 18.9182 5.67812 18.8025 6.0375C18.6869 6.39687 18.7807 6.79375 19.0494 7.05937L22.3057 10.2812L21.5369 14.8344C21.4744 15.2094 21.6307 15.5906 21.94 15.8125C22.2494 16.0344 22.6588 16.0625 22.9963 15.8844L27.0057 13.7437L31.015 15.8844C31.3525 16.0625 31.7619 16.0375 32.0713 15.8125C32.3807 15.5875 32.5369 15.2094 32.4744 14.8344L31.7025 10.2812L34.9588 7.05937C35.2275 6.79375 35.3244 6.39687 35.2057 6.0375C35.0869 5.67812 34.7775 5.41563 34.4025 5.35938L29.9119 4.69688L27.9025 0.5625Z" fill="#FBBF24"/>
</g>
</g>
<g clip-path="url(#clip4_558_3438)">
<g clip-path="url(#clip5_558_3438)">
<path d="M45.9025 0.5625C45.7369 0.21875 45.3869 0 45.0025 0C44.6182 0 44.2713 0.21875 44.1025 0.5625L42.0932 4.69688L37.6057 5.35938C37.2307 5.41563 36.9182 5.67812 36.8025 6.0375C36.6869 6.39687 36.7807 6.79375 37.0494 7.05937L40.3057 10.2812L39.5369 14.8344C39.4744 15.2094 39.6307 15.5906 39.94 15.8125C40.2494 16.0344 40.6588 16.0625 40.9963 15.8844L45.0057 13.7437L49.015 15.8844C49.3525 16.0625 49.7619 16.0375 50.0713 15.8125C50.3807 15.5875 50.5369 15.2094 50.4744 14.8344L49.7025 10.2812L52.9588 7.05937C53.2275 6.79375 53.3244 6.39687 53.2057 6.0375C53.0869 5.67812 52.7775 5.41563 52.4025 5.35938L47.9119 4.69688L45.9025 0.5625Z" fill="#FBBF24"/>
</g>
</g>
<g clip-path="url(#clip6_558_3438)">
<g clip-path="url(#clip7_558_3438)">
<path d="M63.9025 0.5625C63.7369 0.21875 63.3869 0 63.0025 0C62.6182 0 62.2713 0.21875 62.1025 0.5625L60.0932 4.69688L55.6057 5.35938C55.2307 5.41563 54.9182 5.67812 54.8025 6.0375C54.6869 6.39687 54.7807 6.79375 55.0494 7.05937L58.3057 10.2812L57.5369 14.8344C57.4744 15.2094 57.6307 15.5906 57.94 15.8125C58.2494 16.0344 58.6588 16.0625 58.9963 15.8844L63.0057 13.7437L67.015 15.8844C67.3525 16.0625 67.7619 16.0375 68.0713 15.8125C68.3807 15.5875 68.5369 15.2094 68.4744 14.8344L67.7025 10.2812L70.9588 7.05937C71.2275 6.79375 71.3244 6.39687 71.2057 6.0375C71.0869 5.67812 70.7775 5.41563 70.4025 5.35938L65.9119 4.69688L63.9025 0.5625Z" fill="#FBBF24"/>
</g>
</g>
<g clip-path="url(#clip8_558_3438)">
<g clip-path="url(#clip9_558_3438)">
<path d="M80.9966 0C81.2841 0 81.5466 0.1625 81.6716 0.421875L83.8154 4.8375L88.6029 5.54375C88.8841 5.58437 89.1185 5.78125 89.206 6.05312C89.2935 6.325 89.2216 6.61875 89.0216 6.81875L85.5497 10.2625L86.3685 15.125C86.4154 15.4062 86.2997 15.6906 86.0685 15.8594C85.8372 16.0281 85.5279 16.0469 85.2779 15.9125L80.9966 13.625L76.7185 15.9094C76.4654 16.0438 76.1591 16.025 75.9279 15.8562C75.6966 15.6875 75.5779 15.4031 75.6247 15.1219L76.4435 10.2594L72.9716 6.81875C72.7685 6.61875 72.6997 6.32188 72.7872 6.05312C72.8747 5.78437 73.1091 5.5875 73.3904 5.54375L78.1779 4.8375L80.3216 0.421875C80.4497 0.1625 80.7091 0 80.9966 0ZM80.9966 2.46875L79.356 5.85C79.2466 6.07188 79.0372 6.22813 78.7904 6.26562L75.0935 6.80937L77.7779 9.46875C77.9497 9.64062 78.031 9.88437 77.9904 10.125L77.356 13.8656L80.6435 12.1094C80.8654 11.9906 81.131 11.9906 81.3497 12.1094L84.6372 13.8656L84.006 10.1281C83.9654 9.8875 84.0435 9.64375 84.2185 9.47188L86.9029 6.8125L83.206 6.26562C82.9622 6.22813 82.7497 6.075 82.6404 5.85L80.9966 2.46875Z" fill="#FBBF24"/>
</g>
</g>
<defs>
<clipPath id="clip0_558_3438">
<rect width="18" height="16" fill="white"/>
</clipPath>
<clipPath id="clip1_558_3438">
<path d="M0 0H18V16H0V0Z" fill="white"/>
</clipPath>
<clipPath id="clip2_558_3438">
<rect width="18" height="16" fill="white" transform="translate(18)"/>
</clipPath>
<clipPath id="clip3_558_3438">
<path d="M18 0H36V16H18V0Z" fill="white"/>
</clipPath>
<clipPath id="clip4_558_3438">
<rect width="18" height="16" fill="white" transform="translate(36)"/>
</clipPath>
<clipPath id="clip5_558_3438">
<path d="M36 0H54V16H36V0Z" fill="white"/>
</clipPath>
<clipPath id="clip6_558_3438">
<rect width="18" height="16" fill="white" transform="translate(54)"/>
</clipPath>
<clipPath id="clip7_558_3438">
<path d="M54 0H72V16H54V0Z" fill="white"/>
</clipPath>
<clipPath id="clip8_558_3438">
<rect width="18" height="16" fill="white" transform="translate(72)"/>
</clipPath>
<clipPath id="clip9_558_3438">
<path d="M72 0H90V16H72V0Z" fill="white"/>
</clipPath>
</defs>
</svg>
