<svg width="90" height="16" viewBox="0 0 90 16" fill="none" xmlns="http://www.w3.org/2000/svg">
<path d="M0 0H90V16H0V0Z" stroke="#E5E7EB"/>
<g clip-path="url(#clip0_558_3414)">
<g clip-path="url(#clip1_558_3414)">
<path d="M9.90254 0.5625C9.73692 0.21875 9.38692 0 9.00255 0C8.61817 0 8.27129 0.21875 8.10254 0.5625L6.09317 4.69688L1.60567 5.35938C1.23067 5.41563 0.91817 5.67812 0.802545 6.0375C0.68692 6.39687 0.78067 6.79375 1.04942 7.05937L4.30567 10.2812L3.53692 14.8344C3.47442 15.2094 3.63067 15.5906 3.94005 15.8125C4.24942 16.0344 4.65879 16.0625 4.99629 15.8844L9.00567 13.7437L13.015 15.8844C13.3525 16.0625 13.7619 16.0375 14.0713 15.8125C14.3807 15.5875 14.5369 15.2094 14.4744 14.8344L13.7025 10.2812L16.9588 7.05937C17.2275 6.79375 17.3244 6.39687 17.2057 6.0375C17.0869 5.67812 16.7775 5.41563 16.4025 5.35938L11.9119 4.69688L9.90254 0.5625Z" fill="#FBBF24"/>
</g>
</g>
<g clip-path="url(#clip2_558_3414)">
<g clip-path="url(#clip3_558_3414)">
<path d="M27.9025 0.5625C27.7369 0.21875 27.3869 0 27.0025 0C26.6182 0 26.2713 0.21875 26.1025 0.5625L24.0932 4.69688L19.6057 5.35938C19.2307 5.41563 18.9182 5.67812 18.8025 6.0375C18.6869 6.39687 18.7807 6.79375 19.0494 7.05937L22.3057 10.2812L21.5369 14.8344C21.4744 15.2094 21.6307 15.5906 21.94 15.8125C22.2494 16.0344 22.6588 16.0625 22.9963 15.8844L27.0057 13.7437L31.015 15.8844C31.3525 16.0625 31.7619 16.0375 32.0713 15.8125C32.3807 15.5875 32.5369 15.2094 32.4744 14.8344L31.7025 10.2812L34.9588 7.05937C35.2275 6.79375 35.3244 6.39687 35.2057 6.0375C35.0869 5.67812 34.7775 5.41563 34.4025 5.35938L29.9119 4.69688L27.9025 0.5625Z" fill="#FBBF24"/>
</g>
</g>
<g clip-path="url(#clip4_558_3414)">
<g clip-path="url(#clip5_558_3414)">
<path d="M45.9025 0.5625C45.7369 0.21875 45.3869 0 45.0025 0C44.6182 0 44.2713 0.21875 44.1025 0.5625L42.0932 4.69688L37.6057 5.35938C37.2307 5.41563 36.9182 5.67812 36.8025 6.0375C36.6869 6.39687 36.7807 6.79375 37.0494 7.05937L40.3057 10.2812L39.5369 14.8344C39.4744 15.2094 39.6307 15.5906 39.94 15.8125C40.2494 16.0344 40.6588 16.0625 40.9963 15.8844L45.0057 13.7437L49.015 15.8844C49.3525 16.0625 49.7619 16.0375 50.0713 15.8125C50.3807 15.5875 50.5369 15.2094 50.4744 14.8344L49.7025 10.2812L52.9588 7.05937C53.2275 6.79375 53.3244 6.39687 53.2057 6.0375C53.0869 5.67812 52.7775 5.41563 52.4025 5.35938L47.9119 4.69688L45.9025 0.5625Z" fill="#FBBF24"/>
</g>
</g>
<g clip-path="url(#clip6_558_3414)">
<g clip-path="url(#clip7_558_3414)">
<path d="M63.9025 0.5625C63.7369 0.21875 63.3869 0 63.0025 0C62.6182 0 62.2713 0.21875 62.1025 0.5625L60.0932 4.69688L55.6057 5.35938C55.2307 5.41563 54.9182 5.67812 54.8025 6.0375C54.6869 6.39687 54.7807 6.79375 55.0494 7.05937L58.3057 10.2812L57.5369 14.8344C57.4744 15.2094 57.6307 15.5906 57.94 15.8125C58.2494 16.0344 58.6588 16.0625 58.9963 15.8844L63.0057 13.7437L67.015 15.8844C67.3525 16.0625 67.7619 16.0375 68.0713 15.8125C68.3807 15.5875 68.5369 15.2094 68.4744 14.8344L67.7025 10.2812L70.9588 7.05937C71.2275 6.79375 71.3244 6.39687 71.2057 6.0375C71.0869 5.67812 70.7775 5.41563 70.4025 5.35938L65.9119 4.69688L63.9025 0.5625Z" fill="#FBBF24"/>
</g>
</g>
<g clip-path="url(#clip8_558_3414)">
<g clip-path="url(#clip9_558_3414)">
<path d="M81.9025 0.5625C81.7369 0.21875 81.3869 0 81.0025 0C80.6182 0 80.2713 0.21875 80.1025 0.5625L78.0932 4.69688L73.6057 5.35938C73.2307 5.41563 72.9182 5.67812 72.8025 6.0375C72.6869 6.39687 72.7807 6.79375 73.0494 7.05937L76.3057 10.2812L75.5369 14.8344C75.4744 15.2094 75.6307 15.5906 75.94 15.8125C76.2494 16.0344 76.6588 16.0625 76.9963 15.8844L81.0057 13.7437L85.015 15.8844C85.3525 16.0625 85.7619 16.0375 86.0713 15.8125C86.3807 15.5875 86.5369 15.2094 86.4744 14.8344L85.7025 10.2812L88.9588 7.05937C89.2275 6.79375 89.3244 6.39687 89.2057 6.0375C89.0869 5.67812 88.7775 5.41563 88.4025 5.35938L83.9119 4.69688L81.9025 0.5625Z" fill="#FBBF24"/>
</g>
</g>
<defs>
<clipPath id="clip0_558_3414">
<rect width="18" height="16" fill="white"/>
</clipPath>
<clipPath id="clip1_558_3414">
<path d="M0 0H18V16H0V0Z" fill="white"/>
</clipPath>
<clipPath id="clip2_558_3414">
<rect width="18" height="16" fill="white" transform="translate(18)"/>
</clipPath>
<clipPath id="clip3_558_3414">
<path d="M18 0H36V16H18V0Z" fill="white"/>
</clipPath>
<clipPath id="clip4_558_3414">
<rect width="18" height="16" fill="white" transform="translate(36)"/>
</clipPath>
<clipPath id="clip5_558_3414">
<path d="M36 0H54V16H36V0Z" fill="white"/>
</clipPath>
<clipPath id="clip6_558_3414">
<rect width="18" height="16" fill="white" transform="translate(54)"/>
</clipPath>
<clipPath id="clip7_558_3414">
<path d="M54 0H72V16H54V0Z" fill="white"/>
</clipPath>
<clipPath id="clip8_558_3414">
<rect width="18" height="16" fill="white" transform="translate(72)"/>
</clipPath>
<clipPath id="clip9_558_3414">
<path d="M72 0H90V16H72V0Z" fill="white"/>
</clipPath>
</defs>
</svg>
