<svg width="42" height="42" viewBox="0 0 42 42" fill="none" xmlns="http://www.w3.org/2000/svg">
<path d="M0 8C0 3.58172 3.58172 0 8 0H34C38.4183 0 42 3.58172 42 8V34C42 38.4183 38.4183 42 34 42H8C3.58172 42 0 38.4183 0 34V8Z" fill="#ECFDF5"/>
<path d="M0 8C0 3.58172 3.58172 0 8 0H34C38.4183 0 42 3.58172 42 8V34C42 38.4183 38.4183 42 34 42H8C3.58172 42 0 38.4183 0 34V8Z" stroke="#E5E7EB"/>
<path d="M14.1018 15.5C14.1018 14.0413 14.678 12.6424 15.7037 11.6109C16.7294 10.5795 18.1204 10 19.5709 10C21.0214 10 22.4125 10.5795 23.4382 11.6109C24.4638 12.6424 25.0401 14.0413 25.0401 15.5C25.0401 16.9587 24.4638 18.3576 23.4382 19.3891C22.4125 20.4205 21.0214 21 19.5709 21C18.1204 21 16.7294 20.4205 15.7037 19.3891C14.678 18.3576 14.1018 16.9587 14.1018 15.5ZM10 30.7238C10 26.4914 13.4096 23.0625 17.6183 23.0625H21.5236C25.7322 23.0625 29.1419 26.4914 29.1419 30.7238C29.1419 31.4285 28.5736 32 27.8729 32H11.269C10.5683 32 10 31.4285 10 30.7238ZM36.7046 17.6055L31.2355 23.1055C30.8339 23.5094 30.1844 23.5094 29.7871 23.1055L27.0525 20.3555C26.6509 19.9516 26.6509 19.2984 27.0525 18.8988C27.4542 18.4992 28.1036 18.4949 28.501 18.8988L30.5092 20.9184L35.2519 16.1445C35.6535 15.7406 36.303 15.7406 36.7004 16.1445C37.0977 16.5484 37.102 17.2016 36.7004 17.6012L36.7046 17.6055Z" fill="#10B981"/>
</svg>
