<svg width="16" height="5" viewBox="0 0 16 5" fill="none" xmlns="http://www.w3.org/2000/svg">
<path d="M4.14815 2.07407C4.14815 1.524 3.92963 0.996447 3.54067 0.607482C3.1517 0.218518 2.62415 0 2.07407 0C1.524 0 0.996446 0.218518 0.607482 0.607482C0.218517 0.996447 0 1.524 0 2.07407C0 2.62415 0.218517 3.1517 0.607482 3.54067C0.996446 3.92963 1.524 4.14815 2.07407 4.14815C2.62415 4.14815 3.1517 3.92963 3.54067 3.54067C3.92963 3.1517 4.14815 2.62415 4.14815 2.07407ZM10.0741 2.07407C10.0741 1.524 9.85556 0.996447 9.46659 0.607482C9.07763 0.218518 8.55008 0 8 0C7.44992 0 6.92237 0.218518 6.53341 0.607482C6.14444 0.996447 5.92593 1.524 5.92593 2.07407C5.92593 2.62415 6.14444 3.1517 6.53341 3.54067C6.92237 3.92963 7.44992 4.14815 8 4.14815C8.55008 4.14815 9.07763 3.92963 9.46659 3.54067C9.85556 3.1517 10.0741 2.62415 10.0741 2.07407ZM13.9259 4.14815C14.476 4.14815 15.0036 3.92963 15.3925 3.54067C15.7815 3.1517 16 2.62415 16 2.07407C16 1.524 15.7815 0.996447 15.3925 0.607482C15.0036 0.218518 14.476 0 13.9259 0C13.3758 0 12.8483 0.218518 12.4593 0.607482C12.0704 0.996447 11.8519 1.524 11.8519 2.07407C11.8519 2.62415 12.0704 3.1517 12.4593 3.54067C12.8483 3.92963 13.3758 4.14815 13.9259 4.14815Z" fill="#9CA3AF"/>
</svg>
