<svg width="42" height="42" viewBox="0 0 42 42" fill="none" xmlns="http://www.w3.org/2000/svg">
<path d="M0 8C0 3.58172 3.58172 0 8 0H34C38.4183 0 42 3.58172 42 8V34C42 38.4183 38.4183 42 34 42H8C3.58172 42 0 38.4183 0 34V8Z" fill="#ECFDF5"/>
<path d="M0 8C0 3.58172 3.58172 0 8 0H34C38.4183 0 42 3.58172 42 8V34C42 38.4183 38.4183 42 34 42H8C3.58172 42 0 38.4183 0 34V8Z" stroke="#E5E7EB"/>
<path d="M21 32C23.9174 32 26.7153 30.8411 28.7782 28.7782C30.8411 26.7153 32 23.9174 32 21C32 18.0826 30.8411 15.2847 28.7782 13.2218C26.7153 11.1589 23.9174 10 21 10C18.0826 10 15.2847 11.1589 13.2218 13.2218C11.1589 15.2847 10 18.0826 10 21C10 23.9174 11.1589 26.7153 13.2218 28.7782C15.2847 30.8411 18.0826 32 21 32ZM25.8555 18.9805L20.3555 24.4805C19.9516 24.8844 19.2984 24.8844 18.8988 24.4805L16.1488 21.7305C15.7449 21.3266 15.7449 20.6734 16.1488 20.2738C16.5527 19.8742 17.2059 19.8699 17.6055 20.2738L19.625 22.2934L24.3945 17.5195C24.7984 17.1156 25.4516 17.1156 25.8512 17.5195C26.2508 17.9234 26.2551 18.5766 25.8512 18.9762L25.8555 18.9805Z" fill="#10B981"/>
</svg>
