<svg width="28" height="29" viewBox="0 0 28 29" fill="none" xmlns="http://www.w3.org/2000/svg">
<path d="M6.125 13.5938H23.625C23.8571 13.5938 24.0796 13.6892 24.2437 13.8592C24.4078 14.0291 24.5 14.2596 24.5 14.5C24.5 14.7404 24.4078 14.9709 24.2437 15.1408C24.0796 15.3108 23.8571 15.4062 23.625 15.4062H6.125C5.89294 15.4062 5.67038 15.3108 5.50628 15.1408C5.34219 14.9709 5.25 14.7404 5.25 14.5C5.25 14.2596 5.34219 14.0291 5.50628 13.8592C5.67038 13.6892 5.89294 13.5938 6.125 13.5938Z" fill="black" fill-opacity="0.2"/>
<path d="M6.48686 14.4999L13.7441 22.0145C13.9084 22.1847 14.0007 22.4155 14.0007 22.6562C14.0007 22.8968 13.9084 23.1276 13.7441 23.2978C13.5798 23.468 13.357 23.5636 13.1246 23.5636C12.8923 23.5636 12.6694 23.468 12.5051 23.2978L4.63011 15.1415C4.54863 15.0574 4.48398 14.9574 4.43986 14.8473C4.39575 14.7372 4.37305 14.6191 4.37305 14.4999C4.37305 14.3807 4.39575 14.2627 4.43986 14.1526C4.48398 14.0425 4.54863 13.9425 4.63011 13.8583L12.5051 5.70205C12.6694 5.53188 12.8923 5.43628 13.1246 5.43628C13.357 5.43628 13.5798 5.53188 13.7441 5.70205C13.9084 5.87222 14.0007 6.10302 14.0007 6.34367C14.0007 6.58433 13.9084 6.81513 13.7441 6.9853L6.48686 14.4999Z" fill="black" fill-opacity="0.2"/>
</svg>
