<svg width="45" height="46" viewBox="0 0 45 46" fill="none" xmlns="http://www.w3.org/2000/svg">
<path d="M22.0833 0.914062C24.9834 0.914063 27.855 1.48526 30.5343 2.59506C33.2135 3.70485 35.648 5.33149 37.6986 7.38212C39.7492 9.43275 41.3759 11.8672 42.4857 14.5465C43.5955 17.2257 44.1667 20.0974 44.1667 22.9974C44.1667 28.8543 41.84 34.4712 37.6986 38.6127C33.5572 42.7541 27.9402 45.0807 22.0833 45.0807C19.1833 45.0807 16.3117 44.5095 13.6324 43.3997C10.9531 42.2899 8.51869 40.6633 6.46806 38.6127C2.32663 34.4712 0 28.8543 0 22.9974C0 17.1405 2.32663 11.5236 6.46806 7.38212C10.6095 3.24069 16.2265 0.914063 22.0833 0.914062ZM33.125 31.8307V29.6224L30.9167 27.4141V21.6503C30.9167 19.2432 30.3204 17.1232 29.1721 15.3345C28.0458 13.5457 26.4117 12.4195 24.2917 11.9557V10.8516C24.2917 10.2659 24.059 9.70418 23.6449 9.29004C23.2307 8.87589 22.669 8.64323 22.0833 8.64323C21.4976 8.64323 20.936 8.87589 20.5218 9.29004C20.1077 9.70418 19.875 10.2659 19.875 10.8516V11.9557C17.755 12.4195 16.1208 13.5457 14.9946 15.3345C13.8463 17.1232 13.25 19.2432 13.25 21.6503V27.4141L11.0417 29.6224V31.8307H33.125ZM25.3958 34.0391H18.7708C18.7708 34.9176 19.1198 35.7601 19.741 36.3814C20.3623 37.0026 21.2048 37.3516 22.0833 37.3516C22.9619 37.3516 23.8044 37.0026 24.4256 36.3814C25.0468 35.7601 25.3958 34.9176 25.3958 34.0391Z" fill="white"/>
</svg>
