<svg width="42" height="43" viewBox="0 0 42 43" fill="none" xmlns="http://www.w3.org/2000/svg">
<path d="M0 8.5C0 4.08172 3.58172 0.5 8 0.5H34C38.4183 0.5 42 4.08172 42 8.5V34.5C42 38.9183 38.4183 42.5 34 42.5H8C3.58172 42.5 0 38.9183 0 34.5V8.5Z" fill="#EFF6FF"/>
<path d="M0 8.5C0 4.08172 3.58172 0.5 8 0.5H34C38.4183 0.5 42 4.08172 42 8.5V34.5C42 38.9183 38.4183 42.5 34 42.5H8C3.58172 42.5 0 38.9183 0 34.5V8.5Z" stroke="#E5E7EB"/>
<g clip-path="url(#clip0_1111_1660)">
<path d="M17 12C17.6914 12 18.25 12.5586 18.25 13.25V14.5H23.25V13.25C23.25 12.5586 23.8086 12 24.5 12C25.1914 12 25.75 12.5586 25.75 13.25V14.5H27.625C28.6602 14.5 29.5 15.3398 29.5 16.375V18.25H12V16.375C12 15.3398 12.8398 14.5 13.875 14.5H15.75V13.25C15.75 12.5586 16.3086 12 17 12ZM12 19.5H29.5V30.125C29.5 31.1602 28.6602 32 27.625 32H13.875C12.8398 32 12 31.1602 12 30.125V19.5ZM24.8516 23.9141C25.2188 23.5469 25.2188 22.9531 24.8516 22.5898C24.4844 22.2266 23.8906 22.2227 23.5273 22.5898L19.8164 26.3008L17.9805 24.4648C17.6133 24.0977 17.0195 24.0977 16.6562 24.4648C16.293 24.832 16.2891 25.4258 16.6562 25.7891L19.1562 28.2891C19.5234 28.6562 20.1172 28.6562 20.4805 28.2891L24.8516 23.9141Z" fill="#3B82F6"/>
</g>
<defs>
<clipPath id="clip0_1111_1660">
<path d="M12 12H29.5V32H12V12Z" fill="white"/>
</clipPath>
</defs>
</svg>
