<svg width="17" height="19" viewBox="0 0 17 19" fill="none" xmlns="http://www.w3.org/2000/svg">
<path d="M5.76786 0.890625C5.76786 0.39707 5.36183 0 4.85714 0C4.35246 0 3.94643 0.39707 3.94643 0.890625V2.375H2.42857C1.08906 2.375 0 3.44004 0 4.75V5.34375V7.125V16.625C0 17.935 1.08906 19 2.42857 19H14.5714C15.9109 19 17 17.935 17 16.625V7.125V5.34375V4.75C17 3.44004 15.9109 2.375 14.5714 2.375H13.0536V0.890625C13.0536 0.39707 12.6475 0 12.1429 0C11.6382 0 11.2321 0.39707 11.2321 0.890625V2.375H5.76786V0.890625ZM1.82143 7.125H15.1786V16.625C15.1786 16.9516 14.9054 17.2188 14.5714 17.2188H2.42857C2.09464 17.2188 1.82143 16.9516 1.82143 16.625V7.125Z" fill="#6B7280"/>
</svg>
