<svg width="24" height="19" viewBox="0 0 24 19" fill="none" xmlns="http://www.w3.org/2000/svg">
<path d="M7.52695 1.39107L7.05977 2.71429H3.7041C2.11836 2.71429 0.829102 3.93147 0.829102 5.42857V16.2857C0.829102 17.7828 2.11836 19 3.7041 19H20.9541C22.5398 19 23.8291 17.7828 23.8291 16.2857V5.42857C23.8291 3.93147 22.5398 2.71429 20.9541 2.71429H17.5984L17.1313 1.39107C16.8393 0.559822 16.0172 0 15.0873 0H9.5709C8.64102 0 7.81895 0.559822 7.52695 1.39107ZM12.3291 6.78571C13.4728 6.78571 14.5697 7.21467 15.3785 7.97821C16.1873 8.74175 16.6416 9.77733 16.6416 10.8571C16.6416 11.937 16.1873 12.9725 15.3785 13.7361C14.5697 14.4996 13.4728 14.9286 12.3291 14.9286C11.1854 14.9286 10.0885 14.4996 9.2797 13.7361C8.47095 12.9725 8.0166 11.937 8.0166 10.8571C8.0166 9.77733 8.47095 8.74175 9.2797 7.97821C10.0885 7.21467 11.1854 6.78571 12.3291 6.78571Z" fill="#4B5563"/>
</svg>
