<svg width="42" height="42" viewBox="0 0 42 42" fill="none" xmlns="http://www.w3.org/2000/svg">
<path d="M0 8C0 3.58172 3.58172 0 8 0H34C38.4183 0 42 3.58172 42 8V34C42 38.4183 38.4183 42 34 42H8C3.58172 42 0 38.4183 0 34V8Z" fill="#FEF2F2"/>
<path d="M0 8C0 3.58172 3.58172 0 8 0H34C38.4183 0 42 3.58172 42 8V34C42 38.4183 38.4183 42 34 42H8C3.58172 42 0 38.4183 0 34V8Z" stroke="#E5E7EB"/>
<path d="M21 10.5C15.225 10.5 10.5 15.225 10.5 21C10.5 26.775 15.225 31.5 21 31.5C26.775 31.5 31.5 26.775 31.5 21C31.5 15.225 26.775 10.5 21 10.5ZM21 12.8333C22.8083 12.8333 24.5 13.475 25.9 14.4667L14.4667 25.9C13.475 24.5 12.8333 22.8083 12.8333 21C12.8333 16.5083 16.5083 12.8333 21 12.8333ZM21 29.1667C19.1917 29.1667 17.5 28.525 16.1 27.5333L27.5333 16.1C28.525 17.5 29.1667 19.1917 29.1667 21C29.1667 25.4917 25.4917 29.1667 21 29.1667Z" fill="#EF4444"/>
</svg>
