<svg width="28" height="30" viewBox="0 0 28 30" fill="none" xmlns="http://www.w3.org/2000/svg">
<path d="M7.12969 7.575L5.75332 11.5714H21.2467L19.8703 7.575C19.633 6.88929 18.9949 6.42857 18.2777 6.42857H8.72227C8.00508 6.42857 7.36699 6.88929 7.12969 7.575ZM2.08828 11.8286L3.94453 6.44464C4.65645 4.38214 6.5707 3 8.72227 3H18.2777C20.4293 3 22.3436 4.38214 23.0555 6.44464L24.9117 11.8286C26.1352 12.3429 27 13.5696 27 15V22.7143V25.2857C27 26.2339 26.2459 27 25.3125 27H23.625C22.6916 27 21.9375 26.2339 21.9375 25.2857V22.7143H5.0625V25.2857C5.0625 26.2339 4.3084 27 3.375 27H1.6875C0.754102 27 0 26.2339 0 25.2857V22.7143V15C0 13.5696 0.864844 12.3429 2.08828 11.8286ZM6.75 16.7143C6.75 16.2596 6.57221 15.8236 6.25574 15.5021C5.93928 15.1806 5.51005 15 5.0625 15C4.61495 15 4.18572 15.1806 3.86926 15.5021C3.55279 15.8236 3.375 16.2596 3.375 16.7143C3.375 17.1689 3.55279 17.605 3.86926 17.9265C4.18572 18.248 4.61495 18.4286 5.0625 18.4286C5.51005 18.4286 5.93928 18.248 6.25574 17.9265C6.57221 17.605 6.75 17.1689 6.75 16.7143ZM21.9375 18.4286C22.3851 18.4286 22.8143 18.248 23.1307 17.9265C23.4472 17.605 23.625 17.1689 23.625 16.7143C23.625 16.2596 23.4472 15.8236 23.1307 15.5021C22.8143 15.1806 22.3851 15 21.9375 15C21.4899 15 21.0607 15.1806 20.7443 15.5021C20.4278 15.8236 20.25 16.2596 20.25 16.7143C20.25 17.1689 20.4278 17.605 20.7443 17.9265C21.0607 18.248 21.4899 18.4286 21.9375 18.4286Z" fill="#04333A"/>
</svg>
