<svg width="19" height="16" viewBox="0 0 19 16" fill="none" xmlns="http://www.w3.org/2000/svg">
<path d="M5.01719 3.05L4.04863 5.71429H14.9514L13.9828 3.05C13.8158 2.59286 13.3668 2.28571 12.8621 2.28571H6.13789C5.6332 2.28571 5.18418 2.59286 5.01719 3.05ZM1.46953 5.88571L2.77578 2.29643C3.27676 0.921429 4.62383 0 6.13789 0H12.8621C14.3762 0 15.7232 0.921429 16.2242 2.29643L17.5305 5.88571C18.3914 6.22857 19 7.04643 19 8V13.1429V14.8571C19 15.4893 18.4693 16 17.8125 16H16.625C15.9682 16 15.4375 15.4893 15.4375 14.8571V13.1429H3.5625V14.8571C3.5625 15.4893 3.03184 16 2.375 16H1.1875C0.530664 16 0 15.4893 0 14.8571V13.1429V8C0 7.04643 0.608594 6.22857 1.46953 5.88571ZM4.75 9.14286C4.75 8.83975 4.62489 8.54906 4.40219 8.33473C4.17949 8.12041 3.87744 8 3.5625 8C3.24756 8 2.94551 8.12041 2.72281 8.33473C2.50011 8.54906 2.375 8.83975 2.375 9.14286C2.375 9.44596 2.50011 9.73665 2.72281 9.95098C2.94551 10.1653 3.24756 10.2857 3.5625 10.2857C3.87744 10.2857 4.17949 10.1653 4.40219 9.95098C4.62489 9.73665 4.75 9.44596 4.75 9.14286ZM15.4375 10.2857C15.7524 10.2857 16.0545 10.1653 16.2772 9.95098C16.4999 9.73665 16.625 9.44596 16.625 9.14286C16.625 8.83975 16.4999 8.54906 16.2772 8.33473C16.0545 8.12041 15.7524 8 15.4375 8C15.1226 8 14.8205 8.12041 14.5978 8.33473C14.3751 8.54906 14.25 8.83975 14.25 9.14286C14.25 9.44596 14.3751 9.73665 14.5978 9.95098C14.8205 10.1653 15.1226 10.2857 15.4375 10.2857Z" fill="#6B7280"/>
</svg>
