<svg width="42" height="42" viewBox="0 0 42 42" fill="none" xmlns="http://www.w3.org/2000/svg">
<path d="M0 8C0 3.58172 3.58172 0 8 0H34C38.4183 0 42 3.58172 42 8V34C42 38.4183 38.4183 42 34 42H8C3.58172 42 0 38.4183 0 34V8Z" fill="#FEF2F2"/>
<path d="M0 8C0 3.58172 3.58172 0 8 0H34C38.4183 0 42 3.58172 42 8V34C42 38.4183 38.4183 42 34 42H8C3.58172 42 0 38.4183 0 34V8Z" stroke="#E5E7EB"/>
<path d="M20.5696 10C21.2669 10 21.9102 10.3683 22.2638 10.9723L32.871 29.0437C33.2294 29.6527 33.2294 30.404 32.8808 31.0129C32.5321 31.6219 31.879 32 31.1768 32H9.96247C9.26024 32 8.60712 31.6219 8.25846 31.0129C7.90979 30.404 7.91471 29.6478 8.26828 29.0437L18.8754 10.9723C19.229 10.3683 19.8723 10 20.5696 10ZM20.5696 16.2857C19.9165 16.2857 19.391 16.8112 19.391 17.4643V22.9643C19.391 23.6174 19.9165 24.1429 20.5696 24.1429C21.2227 24.1429 21.7482 23.6174 21.7482 22.9643V17.4643C21.7482 16.8112 21.2227 16.2857 20.5696 16.2857ZM22.141 27.2857C22.141 26.8689 21.9755 26.4692 21.6808 26.1745C21.3861 25.8798 20.9864 25.7143 20.5696 25.7143C20.1528 25.7143 19.7531 25.8798 19.4584 26.1745C19.1637 26.4692 18.9982 26.8689 18.9982 27.2857C18.9982 27.7025 19.1637 28.1022 19.4584 28.3969C19.7531 28.6916 20.1528 28.8571 20.5696 28.8571C20.9864 28.8571 21.3861 28.6916 21.6808 28.3969C21.9755 28.1022 22.141 27.7025 22.141 27.2857Z" fill="#EF4444"/>
</svg>
