<svg width="36" height="28" viewBox="0 0 36 28" fill="none" xmlns="http://www.w3.org/2000/svg">
<path d="M32 3C32.55 3 33 3.45 33 4V6H3V4C3 3.45 3.45 3 4 3H32ZM33 12V24C33 24.55 32.55 25 32 25H4C3.45 25 3 24.55 3 24V12H33ZM4 0C1.79375 0 0 1.79375 0 4V24C0 26.2062 1.79375 28 4 28H32C34.2062 28 36 26.2062 36 24V4C36 1.79375 34.2062 0 32 0H4ZM7.5 19C6.66875 19 6 19.6688 6 20.5C6 21.3312 6.66875 22 7.5 22H10.5C11.3313 22 12 21.3312 12 20.5C12 19.6688 11.3313 19 10.5 19H7.5ZM15.5 19C14.6687 19 14 19.6688 14 20.5C14 21.3312 14.6687 22 15.5 22H22.5C23.3312 22 24 21.3312 24 20.5C24 19.6688 23.3312 19 22.5 19H15.5Z" fill="#043137"/>
</svg>
