<svg width="42" height="43" viewBox="0 0 42 43" fill="none" xmlns="http://www.w3.org/2000/svg">
<path d="M0 8.5C0 4.08172 3.58172 0.5 8 0.5H34C38.4183 0.5 42 4.08172 42 8.5V34.5C42 38.9183 38.4183 42.5 34 42.5H8C3.58172 42.5 0 38.9183 0 34.5V8.5Z" fill="#EFF6FF"/>
<path d="M0 8.5C0 4.08172 3.58172 0.5 8 0.5H34C38.4183 0.5 42 4.08172 42 8.5V34.5C42 38.9183 38.4183 42.5 34 42.5H8C3.58172 42.5 0 38.9183 0 34.5V8.5Z" stroke="#E5E7EB"/>
<g clip-path="url(#clip0_1111_2319)">
<path d="M15.375 12C14.3398 12 13.5 12.8398 13.5 13.875V30.125C13.5 31.1602 14.3398 32 15.375 32H19.125V28.875C19.125 27.8398 19.9648 27 21 27C22.0352 27 22.875 27.8398 22.875 28.875V32H26.625C27.6602 32 28.5 31.1602 28.5 30.125V13.875C28.5 12.8398 27.6602 12 26.625 12H15.375ZM16 21.375C16 21.0312 16.2812 20.75 16.625 20.75H17.875C18.2188 20.75 18.5 21.0312 18.5 21.375V22.625C18.5 22.9688 18.2188 23.25 17.875 23.25H16.625C16.2812 23.25 16 22.9688 16 22.625V21.375ZM20.375 20.75H21.625C21.9688 20.75 22.25 21.0312 22.25 21.375V22.625C22.25 22.9688 21.9688 23.25 21.625 23.25H20.375C20.0312 23.25 19.75 22.9688 19.75 22.625V21.375C19.75 21.0312 20.0312 20.75 20.375 20.75ZM23.5 21.375C23.5 21.0312 23.7812 20.75 24.125 20.75H25.375C25.7188 20.75 26 21.0312 26 21.375V22.625C26 22.9688 25.7188 23.25 25.375 23.25H24.125C23.7812 23.25 23.5 22.9688 23.5 22.625V21.375ZM16.625 15.75H17.875C18.2188 15.75 18.5 16.0312 18.5 16.375V17.625C18.5 17.9688 18.2188 18.25 17.875 18.25H16.625C16.2812 18.25 16 17.9688 16 17.625V16.375C16 16.0312 16.2812 15.75 16.625 15.75ZM19.75 16.375C19.75 16.0312 20.0312 15.75 20.375 15.75H21.625C21.9688 15.75 22.25 16.0312 22.25 16.375V17.625C22.25 17.9688 21.9688 18.25 21.625 18.25H20.375C20.0312 18.25 19.75 17.9688 19.75 17.625V16.375ZM24.125 15.75H25.375C25.7188 15.75 26 16.0312 26 16.375V17.625C26 17.9688 25.7188 18.25 25.375 18.25H24.125C23.7812 18.25 23.5 17.9688 23.5 17.625V16.375C23.5 16.0312 23.7812 15.75 24.125 15.75Z" fill="#2563EB"/>
</g>
<defs>
<clipPath id="clip0_1111_2319">
<path d="M13.5 12H28.5V32H13.5V12Z" fill="white"/>
</clipPath>
</defs>
</svg>
