<svg width="27" height="31" viewBox="0 0 27 31" fill="none" xmlns="http://www.w3.org/2000/svg">
<path d="M0 0.722656H26.25V30.7227H0V0.722656Z" stroke="#E5E7EB"/>
<g clip-path="url(#clip0_620_2194)">
<g clip-path="url(#clip1_620_2194)">
<path d="M7.27321 1.35971L6.83929 2.22154H1.05357C-0.0131696 2.22154 -0.875 3.08337 -0.875 4.15011C-0.875 5.21685 -0.0131696 6.07868 1.05357 6.07868H24.1964C25.2632 6.07868 26.125 5.21685 26.125 4.15011C26.125 3.08337 25.2632 2.22154 24.1964 2.22154H18.4107L17.9768 1.35971C17.6513 0.70279 16.9824 0.292969 16.2531 0.292969H8.99688C8.26763 0.292969 7.59866 0.70279 7.27321 1.35971ZM24.1964 8.00726H1.05357L2.33125 28.4381C2.42768 29.9628 3.6933 31.1501 5.21808 31.1501H20.0319C21.5567 31.1501 22.8223 29.9628 22.9187 28.4381L24.1964 8.00726Z" fill="#DC2626"/>
</g>
</g>
<defs>
<clipPath id="clip0_620_2194">
<rect width="26.25" height="30" fill="white" transform="translate(0 0.722656)"/>
</clipPath>
<clipPath id="clip1_620_2194">
<path d="M0.125 0.722656H26.125V30.7227H0.125V0.722656Z" fill="white"/>
</clipPath>
</defs>
</svg>
