<svg width="12" height="21" viewBox="0 0 12 21" fill="none" xmlns="http://www.w3.org/2000/svg">
<path d="M11.512 13.946C11.512 14.7127 11.3203 15.4333 10.937 16.108C10.569 16.7827 10.017 17.35 9.281 17.81C8.56033 18.27 7.70167 18.546 6.705 18.638V20.501H5.21V18.638C3.76867 18.5 2.60333 18.0477 1.714 17.281C0.824667 16.5143 0.38 15.5023 0.38 14.245H3.186C3.232 14.843 3.42367 15.3413 3.761 15.74C4.09833 16.1233 4.58133 16.3687 5.21 16.476V11.416C4.18267 11.1553 3.347 10.8947 2.703 10.634C2.059 10.358 1.507 9.92867 1.047 9.346C0.602333 8.76333 0.38 7.966 0.38 6.954C0.38 5.68133 0.824667 4.631 1.714 3.803C2.60333 2.95967 3.76867 2.469 5.21 2.331V0.467999H6.705V2.331C8.05433 2.45367 9.13533 2.883 9.948 3.619C10.776 4.33967 11.2437 5.33633 11.351 6.609H8.545C8.499 6.13367 8.315 5.712 7.993 5.344C7.671 4.96067 7.24167 4.7 6.705 4.562V9.53C7.73233 9.77533 8.568 10.036 9.212 10.312C9.856 10.5727 10.4003 10.9943 10.845 11.577C11.2897 12.1443 11.512 12.934 11.512 13.946ZM3.048 6.816C3.048 7.44467 3.232 7.93533 3.6 8.288C3.98333 8.64067 4.52 8.92433 5.21 9.139V4.493C4.55067 4.56967 4.02167 4.80733 3.623 5.206C3.23967 5.60467 3.048 6.14133 3.048 6.816ZM6.705 16.476C7.37967 16.3687 7.90867 16.1003 8.292 15.671C8.67533 15.2263 8.867 14.6973 8.867 14.084C8.867 13.4707 8.67533 12.9953 8.292 12.658C7.924 12.3053 7.395 12.0217 6.705 11.807V16.476Z" fill="#9CA3AF"/>
</svg>
