<svg width="24" height="25" viewBox="0 0 24 25" fill="none" xmlns="http://www.w3.org/2000/svg">
<path fill-rule="evenodd" clip-rule="evenodd" d="M4.36669 8.05605C4.59556 7.83585 4.90249 7.71553 5.22004 7.72152C5.53758 7.72751 5.83975 7.85933 6.06015 8.088L11.9872 14.3793L17.9143 8.088C18.0221 7.96923 18.1525 7.87329 18.298 7.80587C18.4435 7.73845 18.6011 7.70092 18.7613 7.69551C18.9216 7.69009 19.0813 7.7169 19.231 7.77435C19.3808 7.83179 19.5174 7.91871 19.6329 8.02994C19.7484 8.14117 19.8404 8.27445 19.9035 8.42189C19.9665 8.56933 19.9994 8.72793 20 8.88828C20.0006 9.04864 19.9691 9.20749 19.9072 9.35542C19.8453 9.50336 19.7543 9.63737 19.6397 9.74951L12.8499 16.9387C12.7382 17.0547 12.6042 17.1469 12.4559 17.2099C12.3077 17.2729 12.1483 17.3054 11.9872 17.3054C11.8262 17.3054 11.6668 17.2729 11.5185 17.2099C11.3703 17.1469 11.2363 17.0547 11.1245 16.9387L4.33474 9.74951C4.11455 9.52064 3.99422 9.21371 4.00021 8.89616C4.0062 8.57862 4.13802 8.27645 4.36669 8.05605Z" fill="black"/>
</svg>
