<svg width="42" height="43" viewBox="0 0 42 43" fill="none" xmlns="http://www.w3.org/2000/svg">
<path d="M0 8.5C0 4.08172 3.58172 0.5 8 0.5H34C38.4183 0.5 42 4.08172 42 8.5V34.5C42 38.9183 38.4183 42.5 34 42.5H8C3.58172 42.5 0 38.9183 0 34.5V8.5Z" fill="#EFF6FF"/>
<path d="M0 8.5C0 4.08172 3.58172 0.5 8 0.5H34C38.4183 0.5 42 4.08172 42 8.5V34.5C42 38.9183 38.4183 42.5 34 42.5H8C3.58172 42.5 0 38.9183 0 34.5V8.5Z" stroke="#E5E7EB"/>
<path d="M10 10.5H32V32.5H10V10.5Z" stroke="#E5E7EB"/>
<path d="M12.75 11.875C11.2332 11.875 10 13.1082 10 14.625V28.375C10 29.8918 11.2332 31.125 12.75 31.125H29.25C30.7668 31.125 32 29.8918 32 28.375V18.75C32 17.2332 30.7668 16 29.25 16H13.4375C13.0594 16 12.75 15.6906 12.75 15.3125C12.75 14.9344 13.0594 14.625 13.4375 14.625H29.25C30.0105 14.625 30.625 14.0105 30.625 13.25C30.625 12.4895 30.0105 11.875 29.25 11.875H12.75ZM27.875 22.1875C28.2397 22.1875 28.5894 22.3324 28.8473 22.5902C29.1051 22.8481 29.25 23.1978 29.25 23.5625C29.25 23.9272 29.1051 24.2769 28.8473 24.5348C28.5894 24.7926 28.2397 24.9375 27.875 24.9375C27.5103 24.9375 27.1606 24.7926 26.9027 24.5348C26.6449 24.2769 26.5 23.9272 26.5 23.5625C26.5 23.1978 26.6449 22.8481 26.9027 22.5902C27.1606 22.3324 27.5103 22.1875 27.875 22.1875Z" fill="#3B82F6"/>
</svg>
