<svg width="45" height="53" viewBox="0 0 45 53" fill="none" xmlns="http://www.w3.org/2000/svg">
<rect x="0.5" y="0.5" width="44" height="52" rx="11.5" stroke="#4B5563"/>
<path d="M33.2671 14.8104C32.1866 13.7299 30.4401 13.7299 29.3596 14.8104L27.8746 16.2904L32.7046 21.1205L34.1896 19.6355C35.2701 18.555 35.2701 16.8085 34.1896 15.728L33.2671 14.8104ZM18.5056 25.6644C18.2046 25.9653 17.9728 26.3353 17.8396 26.7448L16.3792 31.1259C16.2361 31.5502 16.3496 32.0189 16.6654 32.3396C16.9811 32.6603 17.4498 32.7688 17.879 32.6257L22.2601 31.1654C22.6647 31.0322 23.0347 30.8003 23.3406 30.4993L31.5946 22.2404L26.7596 17.4054L18.5056 25.6644ZM14.7363 16.8973C12.1215 16.8973 10 19.0187 10 21.6336V34.2637C10 36.8785 12.1215 39 14.7363 39H27.3664C29.9813 39 32.1027 36.8785 32.1027 34.2637V29.5274C32.1027 28.6542 31.3972 27.9486 30.524 27.9486C29.6507 27.9486 28.9452 28.6542 28.9452 29.5274V34.2637C28.9452 35.137 28.2397 35.8425 27.3664 35.8425H14.7363C13.863 35.8425 13.1575 35.137 13.1575 34.2637V21.6336C13.1575 20.7603 13.863 20.0548 14.7363 20.0548H19.4726C20.3458 20.0548 21.0514 19.3493 21.0514 18.476C21.0514 17.6028 20.3458 16.8973 19.4726 16.8973H14.7363Z" fill="#04333A"/>
</svg>
