<svg width="30" height="31" viewBox="0 0 30 31" fill="none" xmlns="http://www.w3.org/2000/svg">
<g clip-path="url(#clip0_620_2191)">
<g clip-path="url(#clip1_620_2191)">
<path d="M27.6328 1.99365C26.3496 0.710449 24.2754 0.710449 22.9922 1.99365L21.2285 3.75146L26.9648 9.48779L28.7285 7.72412C30.0117 6.44092 30.0117 4.3667 28.7285 3.0835L27.6328 1.99365ZM10.1016 14.8843C9.74414 15.2417 9.46875 15.6812 9.31055 16.1675L7.57617 21.3706C7.40625 21.8745 7.54102 22.4312 7.91602 22.812C8.29102 23.1929 8.84766 23.3218 9.35742 23.1519L14.5605 21.4175C15.041 21.2593 15.4805 20.9839 15.8437 20.6265L25.6465 10.8179L19.9043 5.07568L10.1016 14.8843ZM5.625 4.47217C2.51953 4.47217 0 6.9917 0 10.0972V25.0972C0 28.2026 2.51953 30.7222 5.625 30.7222H20.625C23.7305 30.7222 26.25 28.2026 26.25 25.0972V19.4722C26.25 18.4351 25.4121 17.5972 24.375 17.5972C23.3379 17.5972 22.5 18.4351 22.5 19.4722V25.0972C22.5 26.1343 21.6621 26.9722 20.625 26.9722H5.625C4.58789 26.9722 3.75 26.1343 3.75 25.0972V10.0972C3.75 9.06006 4.58789 8.22217 5.625 8.22217H11.25C12.2871 8.22217 13.125 7.38428 13.125 6.34717C13.125 5.31006 12.2871 4.47217 11.25 4.47217H5.625Z" fill="#04333A"/>
</g>
</g>
<defs>
<clipPath id="clip0_620_2191">
<rect width="30" height="30" fill="white" transform="translate(0 0.722656)"/>
</clipPath>
<clipPath id="clip1_620_2191">
<path d="M0 0.722656H30V30.7227H0V0.722656Z" fill="white"/>
</clipPath>
</defs>
</svg>
