<svg width="18" height="25" viewBox="0 0 18 25" fill="none" xmlns="http://www.w3.org/2000/svg">
<path d="M14.8769 2.59098C15.1534 1.94881 14.9472 1.19884 14.3801 0.786351C13.813 0.373866 13.0398 0.411365 12.5102 0.870724L0.51277 11.3704C0.0441211 11.7828 -0.124593 12.4438 0.0956724 13.025C0.315937 13.6062 0.878316 13.9999 1.50162 13.9999H6.72705L3.12314 22.409C2.84664 23.0512 3.05285 23.8012 3.61991 24.2136C4.18698 24.6261 4.96025 24.5886 5.48982 24.1293L17.4872 13.6296C17.9559 13.2172 18.1246 12.5562 17.9043 11.975C17.6841 11.3938 17.1264 11.0047 16.4984 11.0047H11.2729L14.8769 2.59098Z" fill="#043137"/>
</svg>
