<svg width="26" height="20" viewBox="0 0 26 20" fill="none" xmlns="http://www.w3.org/2000/svg">
<path d="M12.9977 2.14286C10.0549 2.14286 7.63571 3.46429 5.78066 5.16518C4.04297 6.76339 2.84238 8.66071 2.22854 10C2.84238 11.3393 4.04296 13.2366 5.77615 14.8348C7.63571 16.5357 10.0549 17.8571 12.9977 17.8571C15.9405 17.8571 18.3598 16.5357 20.2148 14.8348C21.9525 13.2366 23.1531 11.3393 23.7669 10C23.1531 8.66071 21.9525 6.76339 20.2193 5.16518C18.3598 3.46429 15.9405 2.14286 12.9977 2.14286ZM4.30475 3.59821C6.43061 1.64286 9.35084 0 12.9977 0C16.6446 0 19.5649 1.64286 21.6907 3.59821C23.8031 5.54018 25.2158 7.85714 25.8883 9.45089C26.0372 9.80357 26.0372 10.1964 25.8883 10.5491C25.2158 12.1429 23.8031 14.4643 21.6907 16.4018C19.5649 18.3571 16.6446 20 12.9977 20C9.35084 20 6.43061 18.3571 4.30475 16.4018C2.19243 14.4643 0.779707 12.1429 0.111709 10.5491C-0.0372364 10.1964 -0.0372364 9.80357 0.111709 9.45089C0.779707 7.85714 2.19243 5.53571 4.30475 3.59821ZM12.9977 13.5714C14.9927 13.5714 16.6085 11.9732 16.6085 10C16.6085 8.02679 14.9927 6.42857 12.9977 6.42857C12.9661 6.42857 12.9391 6.42857 12.9075 6.42857C12.9661 6.65625 12.9977 6.89732 12.9977 7.14286C12.9977 8.71875 11.7024 10 10.1091 10C9.86086 10 9.61714 9.96875 9.38695 9.91071C9.38695 9.94196 9.38695 9.96875 9.38695 10C9.38695 11.9732 11.0028 13.5714 12.9977 13.5714ZM12.9977 4.28571C14.53 4.28571 15.9994 4.88775 17.0829 5.95939C18.1663 7.03103 18.775 8.48448 18.775 10C18.775 11.5155 18.1663 12.969 17.0829 14.0406C15.9994 15.1122 14.53 15.7143 12.9977 15.7143C11.4655 15.7143 9.99604 15.1122 8.91259 14.0406C7.82914 12.969 7.22047 11.5155 7.22047 10C7.22047 8.48448 7.82914 7.03103 8.91259 5.95939C9.99604 4.88775 11.4655 4.28571 12.9977 4.28571Z" fill="#2563EB"/>
</svg>
