<svg width="44" height="36" viewBox="0 0 44 36" fill="none" xmlns="http://www.w3.org/2000/svg">
<g clip-path="url(#clip0_684_934)">
<path d="M48.8572 0.711398C49.5799 1.29734 49.9998 2.18601 49.9998 3.12351V12.4985C49.9998 13.436 49.5799 14.3247 48.8572 14.9106C48.1345 15.4966 47.1775 15.7407 46.2595 15.5551L30.6345 12.4301C29.4431 12.1958 28.5154 11.2973 28.2224 10.1548H21.8748V13.5532C25.5662 15.311 28.1248 19.0708 28.1248 23.436V37.4985H6.24978V23.436C6.24978 19.0708 8.80837 15.311 12.4998 13.5532V10.7407C8.96462 11.8247 6.05446 14.3442 4.46267 17.6255C3.89626 18.7876 2.49001 19.2759 1.3279 18.7094C0.165792 18.143 -0.322489 16.7368 0.243917 15.5747C2.6072 10.7212 7.09939 7.08835 12.4998 5.89694V3.12351C12.4998 1.39499 13.8963 -0.00149283 15.6248 -0.00149283H18.7498C20.4783 -0.00149283 21.8748 1.39499 21.8748 3.12351V5.46726H28.2224C28.5154 4.32468 29.4431 3.42624 30.6345 3.1821L46.2595 0.0571009C47.1775 -0.128446 48.1248 0.115695 48.8572 0.701632V0.711398ZM28.1248 40.6235V43.7485C28.1248 47.1958 25.322 49.9985 21.8748 49.9985H12.4998C9.05251 49.9985 6.24978 47.1958 6.24978 43.7485V40.6235H28.1248ZM17.1873 9.37351C17.6017 9.37351 17.9991 9.20889 18.2921 8.91586C18.5852 8.62284 18.7498 8.22541 18.7498 7.81101C18.7498 7.39661 18.5852 6.99918 18.2921 6.70615C17.9991 6.41313 17.6017 6.24851 17.1873 6.24851C16.7729 6.24851 16.3754 6.41313 16.0824 6.70615C15.7894 6.99918 15.6248 7.39661 15.6248 7.81101C15.6248 8.22541 15.7894 8.62284 16.0824 8.91586C16.3754 9.20889 16.7729 9.37351 17.1873 9.37351Z" fill="#EA580C"/>
</g>
<defs>
<clipPath id="clip0_684_934">
<path d="M0 0H44V36H0V0Z" fill="white"/>
</clipPath>
</defs>
</svg>
