<svg width="42" height="43" viewBox="0 0 42 43" fill="none" xmlns="http://www.w3.org/2000/svg">
<path d="M0 8.5C0 4.08172 3.58172 0.5 8 0.5H34C38.4183 0.5 42 4.08172 42 8.5V34.5C42 38.9183 38.4183 42.5 34 42.5H8C3.58172 42.5 0 38.9183 0 34.5V8.5Z" fill="#EFF6FF"/>
<path d="M0 8.5C0 4.08172 3.58172 0.5 8 0.5H34C38.4183 0.5 42 4.08172 42 8.5V34.5C42 38.9183 38.4183 42.5 34 42.5H8C3.58172 42.5 0 38.9183 0 34.5V8.5Z" stroke="#E5E7EB"/>
<path d="M10.5312 12C9.13379 12 8 13.1198 8 14.5C8 15.2865 8.37441 16.026 9.0125 16.5L20.4875 25C21.0887 25.4427 21.9113 25.4427 22.5125 25L33.9875 16.5C34.6256 16.026 35 15.2865 35 14.5C35 13.1198 33.8662 12 32.4688 12H10.5312ZM8 17.8333V28.6667C8 30.5052 9.51348 32 11.375 32H31.625C33.4865 32 35 30.5052 35 28.6667V17.8333L23.525 26.3333C22.3227 27.224 20.6773 27.224 19.475 26.3333L8 17.8333Z" fill="#3B82F6"/>
</svg>
