<svg width="28" height="21" viewBox="0 0 28 21" fill="none" xmlns="http://www.w3.org/2000/svg">
<path d="M2.85645 0.972656C1.45898 0.972656 0.325195 2.09245 0.325195 3.47266C0.325195 4.25911 0.699609 4.9987 1.3377 5.47266L12.8127 13.9727C13.4139 14.4154 14.2365 14.4154 14.8377 13.9727L26.3127 5.47266C26.9508 4.9987 27.3252 4.25911 27.3252 3.47266C27.3252 2.09245 26.1914 0.972656 24.7939 0.972656H2.85645ZM0.325195 6.80599V17.6393C0.325195 19.4779 1.83867 20.9727 3.7002 20.9727H23.9502C25.8117 20.9727 27.3252 19.4779 27.3252 17.6393V6.80599L15.8502 15.306C14.6479 16.1966 13.0025 16.1966 11.8002 15.306L0.325195 6.80599Z" fill="black"/>
</svg>
