<svg width="24" height="25" viewBox="0 0 24 25" fill="none" xmlns="http://www.w3.org/2000/svg">
<path d="M16.5 15.5C20.6437 15.5 24 12.1438 24 8C24 7.28281 23.8969 6.58906 23.7094 5.92813C23.5641 5.42188 22.9406 5.30937 22.5703 5.67969L18.9703 9.27969C18.8297 9.42031 18.6375 9.5 18.4406 9.5H15.75C15.3375 9.5 15 9.1625 15 8.75V6.05937C15 5.8625 15.0797 5.67031 15.2203 5.52969L18.8203 1.92969C19.1906 1.55938 19.0734 0.935937 18.5719 0.790625C17.9109 0.603125 17.2172 0.5 16.5 0.5C12.3562 0.5 9 3.85625 9 8C9 8.89531 9.15938 9.75781 9.44531 10.5547L0.932812 19.0672C0.3375 19.6625 0 20.4734 0 21.3172C0 23.075 1.425 24.5 3.18281 24.5C4.02656 24.5 4.8375 24.1625 5.43281 23.5672L13.9453 15.0547C14.7422 15.3453 15.6047 15.5 16.5 15.5ZM3.75 19.625C4.04837 19.625 4.33452 19.7435 4.5455 19.9545C4.75647 20.1655 4.875 20.4516 4.875 20.75C4.875 21.0484 4.75647 21.3345 4.5455 21.5455C4.33452 21.7565 4.04837 21.875 3.75 21.875C3.45163 21.875 3.16548 21.7565 2.9545 21.5455C2.74353 21.3345 2.625 21.0484 2.625 20.75C2.625 20.4516 2.74353 20.1655 2.9545 19.9545C3.16548 19.7435 3.45163 19.625 3.75 19.625Z" fill="#043137"/>
</svg>
