<svg width="45" height="36" viewBox="0 0 45 36" fill="none" xmlns="http://www.w3.org/2000/svg">
<path d="M0.5 3.375C0.5 1.51172 1.97812 0 3.8 0H25.8C27.6219 0 29.1 1.51172 29.1 3.375V6.75H32.5856C33.7544 6.75 34.875 7.22109 35.7 8.06484L41.0144 13.5C41.8394 14.3438 42.3 15.4898 42.3 16.6852V18V20.25V24.75C43.5169 24.75 44.5 25.7555 44.5 27C44.5 28.2445 43.5169 29.25 42.3 29.25H40.1C40.1 32.9766 37.1437 36 33.5 36C29.8563 36 26.9 32.9766 26.9 29.25H18.1C18.1 32.9766 15.1438 36 11.5 36C7.85625 36 4.9 32.9766 4.9 29.25H3.8C1.97812 29.25 0.5 27.7383 0.5 25.875V3.375ZM29.1 18H37.9V16.6852L32.5856 11.25H29.1V18ZM11.5 32.625C12.3752 32.625 13.2146 32.2694 13.8335 31.6365C14.4523 31.0036 14.8 30.1451 14.8 29.25C14.8 28.3549 14.4523 27.4964 13.8335 26.8635C13.2146 26.2306 12.3752 25.875 11.5 25.875C10.6248 25.875 9.78542 26.2306 9.16655 26.8635C8.54768 27.4964 8.2 28.3549 8.2 29.25C8.2 30.1451 8.54768 31.0036 9.16655 31.6365C9.78542 32.2694 10.6248 32.625 11.5 32.625ZM36.8 29.25C36.8 28.3549 36.4523 27.4964 35.8335 26.8635C35.2146 26.2306 34.3752 25.875 33.5 25.875C32.6248 25.875 31.7854 26.2306 31.1665 26.8635C30.5477 27.4964 30.2 28.3549 30.2 29.25C30.2 30.1451 30.5477 31.0036 31.1665 31.6365C31.7854 32.2694 32.6248 32.625 33.5 32.625C34.3752 32.625 35.2146 32.2694 35.8335 31.6365C36.4523 31.0036 36.8 30.1451 36.8 29.25ZM12.6 5.625V9H9.3C8.695 9 8.2 9.50625 8.2 10.125V12.375C8.2 12.9937 8.695 13.5 9.3 13.5H12.6V16.875C12.6 17.4937 13.095 18 13.7 18H15.9C16.505 18 17 17.4937 17 16.875V13.5H20.3C20.905 13.5 21.4 12.9937 21.4 12.375V10.125C21.4 9.50625 20.905 9 20.3 9H17V5.625C17 5.00625 16.505 4.5 15.9 4.5H13.7C13.095 4.5 12.6 5.00625 12.6 5.625Z" fill="#DC2626"/>
</svg>
