<svg width="34" height="30" viewBox="0 0 34 30" fill="none" xmlns="http://www.w3.org/2000/svg">
<path d="M14.875 3.00536C14.1684 3.00536 13.6 3.57844 13.6 4.29078C13.6 5.00312 14.1684 5.57621 14.875 5.57621H17.9403L18.8116 7.19906L13.6 11.5749L11.1934 9.14863C10.5559 8.50591 9.69 8.14707 8.78687 8.14707H3.4C2.45969 8.14707 1.7 8.91297 1.7 9.86097V11.5749H6.8C11.4963 11.5749 15.3 15.4097 15.3 20.1444C15.3 20.7335 15.2416 21.3066 15.13 21.8583H18.87C18.7584 21.3066 18.7 20.7335 18.7 20.1444C18.7 17.3486 20.0281 14.8634 22.0841 13.2995L22.9022 14.8313C21.3775 16.0899 20.4 18.002 20.4 20.1444C20.4 23.931 23.4441 27 27.2 27C30.9559 27 34 23.931 34 20.1444C34 16.3577 30.9559 13.2888 27.2 13.2888C26.4828 13.2888 25.7922 13.4012 25.1441 13.6101L22.2169 8.14707H25.5C26.4403 8.14707 27.2 7.38116 27.2 6.43316V4.71926C27.2 3.77126 26.4403 3.00536 25.5 3.00536H24.4163C24.0178 3.00536 23.6353 3.14461 23.3272 3.4017L20.8091 5.5173L20.0653 4.12475C19.6934 3.43383 18.9762 3 18.1953 3H14.875V3.00536ZM24.5809 17.9592L26.0791 20.755C26.4138 21.3816 27.1894 21.6119 27.8056 21.2745C28.4219 20.9371 28.6556 20.1551 28.3209 19.5338L26.8228 16.738C26.945 16.7219 27.0725 16.7166 27.2 16.7166C29.0753 16.7166 30.6 18.2537 30.6 20.1444C30.6 22.035 29.0753 23.5722 27.2 23.5722C25.3247 23.5722 23.8 22.035 23.8 20.1444C23.8 19.3142 24.0922 18.5537 24.5809 17.9592ZM9.95031 21.4298C9.44563 22.6885 8.22375 23.5722 6.8 23.5722C4.92469 23.5722 3.4 22.035 3.4 20.1444C3.4 18.2537 4.92469 16.7166 6.8 16.7166C8.22906 16.7166 9.45094 17.6003 9.95031 18.859H13.4778C12.8828 15.6882 10.1203 13.2888 6.8 13.2888C3.04406 13.2888 0 16.3577 0 20.1444C0 23.931 3.04406 27 6.8 27C10.1203 27 12.8828 24.6005 13.4831 21.4298H9.95031ZM6.8 21.8583C7.25087 21.8583 7.68327 21.6777 8.00208 21.3563C8.32089 21.0349 8.5 20.5989 8.5 20.1444C8.5 19.6898 8.32089 19.2539 8.00208 18.9325C7.68327 18.6111 7.25087 18.4305 6.8 18.4305C6.34913 18.4305 5.91673 18.6111 5.59792 18.9325C5.27911 19.2539 5.1 19.6898 5.1 20.1444C5.1 20.5989 5.27911 21.0349 5.59792 21.3563C5.91673 21.6777 6.34913 21.8583 6.8 21.8583Z" fill="#04333A"/>
</svg>
