<svg width="25" height="20" viewBox="0 0 25 20" fill="none" xmlns="http://www.w3.org/2000/svg">
<path d="M8.1257 13.75C12.6141 13.75 16.251 10.6719 16.251 6.875C16.251 3.07812 12.6141 0 8.1257 0C3.63727 0 0.000427533 3.07812 0.000427533 6.875C0.000427533 8.38281 0.574666 9.77734 1.54736 10.9141C1.41063 11.2812 1.2075 11.6055 0.992649 11.8789C0.805142 12.1211 0.61373 12.3086 0.4731 12.4375C0.402785 12.5 0.344189 12.5508 0.305125 12.582C0.285593 12.5977 0.269968 12.6094 0.262155 12.6133L0.254342 12.6211C0.0394914 12.7812 -0.0542618 13.0625 0.0316786 13.3164C0.117619 13.5703 0.355908 13.75 0.625449 13.75C1.47704 13.75 2.33644 13.5312 3.05131 13.2617C3.4107 13.125 3.74665 12.9727 4.03963 12.8164C5.23889 13.4102 6.63347 13.75 8.1257 13.75ZM17.501 6.875C17.501 11.2617 13.6298 14.5664 9.0437 14.9609C9.99295 17.8672 13.1415 20 16.876 20C18.3682 20 19.7628 19.6602 20.966 19.0664C21.259 19.2227 21.591 19.375 21.9504 19.5117C22.6653 19.7812 23.5247 20 24.3763 20C24.6458 20 24.888 19.8242 24.97 19.5664C25.0521 19.3086 24.9622 19.0273 24.7435 18.8672L24.7356 18.8594C24.7278 18.8516 24.7122 18.8438 24.6927 18.8281C24.6536 18.7969 24.595 18.75 24.5247 18.6836C24.3841 18.5547 24.1927 18.3672 24.0051 18.125C23.7903 17.8516 23.5872 17.5234 23.4504 17.1602C24.4231 16.0273 24.9974 14.6328 24.9974 13.1211C24.9974 9.49609 21.6809 6.52344 17.4737 6.26562C17.4893 6.46484 17.4971 6.66797 17.4971 6.87109L17.501 6.875Z" fill="#2F92E4"/>
</svg>
