<svg width="28" height="28" viewBox="0 0 28 28" fill="none" xmlns="http://www.w3.org/2000/svg">
<path d="M1.59375 2H25.5938V26H1.59375V2Z" stroke="#E5E7EB"/>
<g clip-path="url(#clip0_1111_1799)">
<g clip-path="url(#clip1_1111_1799)">
<path d="M15.8438 4.25C15.8438 3.65326 15.6067 3.08097 15.1847 2.65901C14.7628 2.23705 14.1905 2 13.5938 2C12.997 2 12.4247 2.23705 12.0028 2.65901C11.5808 3.08097 11.3438 3.65326 11.3438 4.25C11.3438 4.84674 11.5808 5.41903 12.0028 5.84099C12.4247 6.26295 12.997 6.5 13.5938 6.5C14.1905 6.5 14.7628 6.26295 15.1847 5.84099C15.6067 5.41903 15.8438 4.84674 15.8438 4.25ZM15.8438 23.75C15.8438 23.1533 15.6067 22.581 15.1847 22.159C14.7628 21.7371 14.1905 21.5 13.5938 21.5C12.997 21.5 12.4247 21.7371 12.0028 22.159C11.5808 22.581 11.3438 23.1533 11.3438 23.75C11.3438 24.3467 11.5808 24.919 12.0028 25.341C12.4247 25.7629 12.997 26 13.5938 26C14.1905 26 14.7628 25.7629 15.1847 25.341C15.6067 24.919 15.8438 24.3467 15.8438 23.75ZM3.84375 16.25C4.44049 16.25 5.01278 16.0129 5.43474 15.591C5.8567 15.169 6.09375 14.5967 6.09375 14C6.09375 13.4033 5.8567 12.831 5.43474 12.409C5.01278 11.9871 4.44049 11.75 3.84375 11.75C3.24701 11.75 2.67472 11.9871 2.25276 12.409C1.8308 12.831 1.59375 13.4033 1.59375 14C1.59375 14.5967 1.8308 15.169 2.25276 15.591C2.67472 16.0129 3.24701 16.25 3.84375 16.25ZM25.5938 14C25.5938 13.4033 25.3567 12.831 24.9347 12.409C24.5128 11.9871 23.9405 11.75 23.3438 11.75C22.747 11.75 22.1747 11.9871 21.7528 12.409C21.3308 12.831 21.0938 13.4033 21.0938 14C21.0938 14.5967 21.3308 15.169 21.7528 15.591C22.1747 16.0129 22.747 16.25 23.3438 16.25C23.9405 16.25 24.5128 16.0129 24.9347 15.591C25.3567 15.169 25.5938 14.5967 25.5938 14ZM8.29219 22.4844C8.50117 22.2754 8.66695 22.0273 8.78005 21.7542C8.89316 21.4812 8.95137 21.1885 8.95137 20.893C8.95137 20.5974 8.89316 20.3048 8.78005 20.0317C8.66695 19.7587 8.50117 19.5105 8.29219 19.3016C8.0832 19.0926 7.8351 18.9268 7.56204 18.8137C7.28899 18.7006 6.99633 18.6424 6.70078 18.6424C6.10389 18.6424 5.53144 18.8795 5.10938 19.3016C4.68731 19.7236 4.45019 20.2961 4.45019 20.893C4.45019 21.4899 4.68731 22.0623 5.10938 22.4844C5.53144 22.9064 6.10389 23.1436 6.70078 23.1436C7.29767 23.1436 7.87012 22.9064 8.29219 22.4844ZM8.29219 8.69375C8.51156 8.4872 8.68721 8.23869 8.80871 7.96296C8.93022 7.68724 8.99511 7.38992 8.99953 7.08864C9.00395 6.78736 8.94781 6.48827 8.83445 6.2091C8.72108 5.92992 8.5528 5.67637 8.33959 5.46347C8.12637 5.25057 7.87257 5.08266 7.59323 4.96971C7.31389 4.85675 7.01471 4.80106 6.71344 4.80592C6.41217 4.81079 6.11495 4.87611 5.8394 4.99802C5.56386 5.11994 5.31561 5.29595 5.10938 5.51562C4.68731 5.93769 4.45019 6.51014 4.45019 7.10703C4.45019 7.70392 4.68731 8.27637 5.10938 8.69844C5.53144 9.1205 6.10389 9.35762 6.70078 9.35762C7.29767 9.35762 7.87012 9.1205 8.29219 8.69844V8.69375ZM18.8953 22.4844C19.1043 22.6934 19.3524 22.8591 19.6255 22.9722C19.8985 23.0853 20.1912 23.1436 20.4867 23.1436C20.7823 23.1436 21.0749 23.0853 21.348 22.9722C21.621 22.8591 21.8691 22.6934 22.0781 22.4844C22.2871 22.2754 22.4529 22.0273 22.566 21.7542C22.6791 21.4812 22.7373 21.1885 22.7373 20.893C22.7373 20.5974 22.6791 20.3048 22.566 20.0317C22.4529 19.7587 22.2871 19.5105 22.0781 19.3016C21.8691 19.0926 21.621 18.9268 21.348 18.8137C21.0749 18.7006 20.7823 18.6424 20.4867 18.6424C20.1912 18.6424 19.8985 18.7006 19.6255 18.8137C19.3524 18.9268 19.1043 19.0926 18.8953 19.3016C18.6863 19.5105 18.5205 19.7587 18.4074 20.0317C18.2943 20.3048 18.2361 20.5974 18.2361 20.893C18.2361 21.1885 18.2943 21.4812 18.4074 21.7542C18.5205 22.0273 18.6863 22.2754 18.8953 22.4844Z" fill="#3B82F6"/>
</g>
</g>
<defs>
<clipPath id="clip0_1111_1799">
<rect width="24" height="24" fill="white" transform="translate(1.59375 2)"/>
</clipPath>
<clipPath id="clip1_1111_1799">
<path d="M1.59375 2H25.5938V26H1.59375V2Z" fill="white"/>
</clipPath>
</defs>
</svg>
