<svg width="32" height="30" viewBox="0 0 32 30" fill="none" xmlns="http://www.w3.org/2000/svg">
<path d="M15.2153 0.149429L1.21699 5.77498C0.34209 6.12657 -0.145352 7.00557 0.0483748 7.87284C0.242102 8.74011 1.05451 9.37299 2.0044 9.37299V9.84178C2.0044 10.6212 2.67307 11.2482 3.50422 11.2482H28.5013C29.3324 11.2482 30.0011 10.6212 30.0011 9.84178V9.37299C30.951 9.37299 31.7696 8.74597 31.9571 7.87284C32.1446 6.99971 31.6572 6.12071 30.7885 5.77498L16.7902 0.149429C16.2902 -0.0498095 15.7153 -0.0498095 15.2153 0.149429ZM8.00369 13.1234H4.00416V24.6264C3.96666 24.644 3.92917 24.6674 3.89167 24.6909L0.892026 26.5661C0.160862 27.0231 -0.170349 27.8787 0.0858704 28.6698C0.34209 29.4609 1.12325 30 2.0044 30H30.0011C30.8823 30 31.6572 29.4609 31.9134 28.6698C32.1696 27.8787 31.8446 27.0231 31.1072 26.5661L28.1076 24.6909C28.0701 24.6674 28.0326 24.6499 27.9951 24.6264V13.1234H24.0018V24.3745H21.5021V13.1234H17.5026V24.3745H14.5029V13.1234H10.5034V24.3745H8.00369V13.1234ZM16.0028 3.74744C16.5331 3.74744 17.0418 3.945 17.4168 4.29666C17.7918 4.64833 18.0025 5.12529 18.0025 5.62262C18.0025 6.11995 17.7918 6.59691 17.4168 6.94857C17.0418 7.30024 16.5331 7.4978 16.0028 7.4978C15.4724 7.4978 14.9637 7.30024 14.5887 6.94857C14.2137 6.59691 14.003 6.11995 14.003 5.62262C14.003 5.12529 14.2137 4.64833 14.5887 4.29666C14.9637 3.945 15.4724 3.74744 16.0028 3.74744Z" fill="#043137"/>
</svg>
