<svg width="42" height="42" viewBox="0 0 42 42" fill="none" xmlns="http://www.w3.org/2000/svg">
<path d="M0 8C0 3.58172 3.58172 0 8 0H34C38.4183 0 42 3.58172 42 8V34C42 38.4183 38.4183 42 34 42H8C3.58172 42 0 38.4183 0 34V8Z" fill="#EBF1F6"/>
<path d="M0 8C0 3.58172 3.58172 0 8 0H34C38.4183 0 42 3.58172 42 8V34C42 38.4183 38.4183 42 34 42H8C3.58172 42 0 38.4183 0 34V8Z" stroke="#E5E7EB"/>
<path d="M27.4521 13.629L33.4482 19.6594C33.7998 20.0129 34 20.4991 34 21C34 21.5009 33.7998 21.9871 33.4482 22.3406L27.4521 28.371C27.1396 28.6853 26.7197 28.8571 26.2803 28.8571C25.3672 28.8571 24.625 28.1107 24.625 27.1924V24.1429H18.375C17.5107 24.1429 16.8125 23.4406 16.8125 22.5714V19.4286C16.8125 18.5594 17.5107 17.8571 18.375 17.8571H24.625V14.8076C24.625 13.8893 25.3672 13.1429 26.2803 13.1429C26.7197 13.1429 27.1396 13.3196 27.4521 13.629ZM16.8125 13.1429H13.6875C12.8232 13.1429 12.125 13.8451 12.125 14.7143V27.2857C12.125 28.1549 12.8232 28.8571 13.6875 28.8571H16.8125C17.6768 28.8571 18.375 29.5594 18.375 30.4286C18.375 31.2978 17.6768 32 16.8125 32H13.6875C11.0996 32 9 29.8884 9 27.2857V14.7143C9 12.1116 11.0996 10 13.6875 10H16.8125C17.6768 10 18.375 10.7022 18.375 11.5714C18.375 12.4406 17.6768 13.1429 16.8125 13.1429Z" fill="#367AAB"/>
</svg>
