<svg width="42" height="42" viewBox="0 0 42 42" fill="none" xmlns="http://www.w3.org/2000/svg">
<path d="M0 8C0 3.58172 3.58172 0 8 0H34C38.4183 0 42 3.58172 42 8V34C42 38.4183 38.4183 42 34 42H8C3.58172 42 0 38.4183 0 34V8Z" fill="#FFFBEB"/>
<path d="M0 8C0 3.58172 3.58172 0 8 0H34C38.4183 0 42 3.58172 42 8V34C42 38.4183 38.4183 42 34 42H8C3.58172 42 0 38.4183 0 34V8Z" stroke="#E5E7EB"/>
<path d="M21 10C23.9174 10 26.7153 11.1589 28.7782 13.2218C30.8411 15.2847 32 18.0826 32 21C32 23.9174 30.8411 26.7153 28.7782 28.7782C26.7153 30.8411 23.9174 32 21 32C18.0826 32 15.2847 30.8411 13.2218 28.7782C11.1589 26.7153 10 23.9174 10 21C10 18.0826 11.1589 15.2847 13.2218 13.2218C15.2847 11.1589 18.0826 10 21 10ZM19.9688 15.1562V21C19.9688 21.3438 20.1406 21.666 20.4285 21.8594L24.5535 24.6094C25.0262 24.9273 25.6664 24.7984 25.9844 24.3215C26.3023 23.8445 26.1734 23.2086 25.6965 22.8906L22.0312 20.45V15.1562C22.0312 14.5848 21.5715 14.125 21 14.125C20.4285 14.125 19.9688 14.5848 19.9688 15.1562Z" fill="#F59E0B"/>
</svg>
