<svg width="24" height="25" viewBox="0 0 24 25" fill="none" xmlns="http://www.w3.org/2000/svg">
<path d="M2 24.9448C2 24.9448 0 24.9448 0 22.9448C0 20.9448 2 14.9448 12 14.9448C22 14.9448 24 20.9448 24 22.9448C24 24.9448 22 24.9448 22 24.9448H2ZM12 12.9448C13.5913 12.9448 15.1174 12.3127 16.2426 11.1875C17.3679 10.0622 18 8.53612 18 6.94482C18 5.35353 17.3679 3.8274 16.2426 2.70218C15.1174 1.57697 13.5913 0.944824 12 0.944824C10.4087 0.944824 8.88258 1.57697 7.75736 2.70218C6.63214 3.8274 6 5.35353 6 6.94482C6 8.53612 6.63214 10.0622 7.75736 11.1875C8.88258 12.3127 10.4087 12.9448 12 12.9448Z" fill="#AC602A"/>
</svg>
