<svg width="17" height="22" viewBox="0 0 17 22" fill="none" xmlns="http://www.w3.org/2000/svg">
<path d="M7.59 0.579999C9.59 0.579999 11.16 0.949999 12.3 1.69C13.44 2.43 14.21 3.48 14.61 4.84H16.86V6.46H14.91C14.93 6.64 14.94 6.82 14.94 7C14.96 7.18 14.97 7.36 14.97 7.54C14.97 7.8 14.96 8.07 14.94 8.35C14.92 8.61 14.89 8.87 14.85 9.13H16.86V10.75H14.43C14.13 11.57 13.67 12.3 13.05 12.94C12.43 13.58 11.63 14.09 10.65 14.47C9.67 14.83 8.48 15.01 7.08 15.01H5.4V22H2.91V10.75H0.3V9.13H2.91V6.46H0.3V4.84H2.91V0.579999H7.59ZM11.64 10.75H5.4V12.79H6.93C8.11 12.79 9.09 12.63 9.87 12.31C10.65 11.99 11.24 11.47 11.64 10.75ZM12.24 6.46H5.4V9.13H12.21C12.25 8.91 12.28 8.68 12.3 8.44C12.32 8.18 12.33 7.92 12.33 7.66C12.33 7.44 12.32 7.24 12.3 7.06C12.3 6.86 12.28 6.66 12.24 6.46ZM7.5 2.8H5.4V4.84H11.73C11.37 4.16 10.84 3.65 10.14 3.31C9.44 2.97 8.56 2.8 7.5 2.8Z" fill="#043137"/>
</svg>
