<svg width="31" height="31" viewBox="0 0 31 31" fill="none" xmlns="http://www.w3.org/2000/svg">
<g clip-path="url(#clip0_684_948)">
<path d="M28.0008 21.6501V25.4001C28.0022 25.7482 27.9309 26.0928 27.7914 26.4118C27.6519 26.7308 27.4474 27.0171 27.1909 27.2525C26.9343 27.4878 26.6315 27.667 26.3017 27.7785C25.9719 27.89 25.6225 27.9315 25.2758 27.9001C21.4293 27.4822 17.7345 26.1678 14.4883 24.0626C11.4681 22.1435 8.90744 19.5828 6.98827 16.5626C4.87574 13.3016 3.56107 9.58886 3.15077 5.72512C3.11953 5.37945 3.16061 5.03107 3.2714 4.70215C3.38218 4.37323 3.56023 4.07098 3.79423 3.81465C4.02822 3.55831 4.31303 3.35351 4.63051 3.21327C4.94799 3.07304 5.2912 3.00045 5.63827 3.00012H9.38827C9.9949 2.99415 10.583 3.20897 11.043 3.60454C11.5029 4.0001 11.8034 4.54943 11.8883 5.15012C12.0465 6.3502 12.3401 7.52853 12.7633 8.66262C12.9315 9.11003 12.9678 9.59626 12.8682 10.0637C12.7685 10.5312 12.5368 10.9603 12.2008 11.3001L10.6133 12.8876C12.3927 16.0171 14.9838 18.6082 18.1133 20.3876L19.7008 18.8001C20.0406 18.464 20.4697 18.2324 20.9372 18.1327C21.4046 18.033 21.8909 18.0694 22.3383 18.2376C23.4724 18.6608 24.6507 18.9543 25.8508 19.1126C26.458 19.1983 27.0125 19.5041 27.4089 19.972C27.8054 20.4398 28.016 21.0371 28.0008 21.6501Z" stroke="#2563EB" stroke-width="4" stroke-linecap="round" stroke-linejoin="round"/>
</g>
<defs>
<clipPath id="clip0_684_948">
<rect width="30" height="30" fill="white" transform="translate(0.5 0.5)"/>
</clipPath>
</defs>
</svg>
