<svg width="30" height="31" viewBox="0 0 30 31" fill="none" xmlns="http://www.w3.org/2000/svg">
<path d="M27.5008 21.6501V25.4001C27.5022 25.7482 27.4309 26.0928 27.2914 26.4118C27.1519 26.7308 26.9474 27.0171 26.6909 27.2525C26.4343 27.4878 26.1315 27.667 25.8017 27.7785C25.4719 27.89 25.1225 27.9315 24.7758 27.9001C20.9293 27.4822 17.2345 26.1678 13.9883 24.0626C10.9681 22.1435 8.40744 19.5828 6.48827 16.5626C4.37574 13.3016 3.06107 9.58886 2.65077 5.72512C2.61953 5.37945 2.66061 5.03107 2.7714 4.70215C2.88218 4.37323 3.06023 4.07098 3.29423 3.81465C3.52822 3.55831 3.81303 3.35351 4.13051 3.21327C4.44799 3.07304 4.7912 3.00045 5.13827 3.00012H8.88827C9.4949 2.99415 10.083 3.20897 10.543 3.60454C11.0029 4.0001 11.3034 4.54943 11.3883 5.15012C11.5465 6.3502 11.8401 7.52853 12.2633 8.66262C12.4315 9.11003 12.4678 9.59626 12.3682 10.0637C12.2685 10.5312 12.0368 10.9603 11.7008 11.3001L10.1133 12.8876C11.8927 16.0171 14.4838 18.6082 17.6133 20.3876L19.2008 18.8001C19.5406 18.464 19.9697 18.2324 20.4372 18.1327C20.9046 18.033 21.3909 18.0694 21.8383 18.2376C22.9724 18.6608 24.1507 18.9543 25.3508 19.1126C25.958 19.1983 26.5125 19.5041 26.9089 19.972C27.3054 20.4398 27.516 21.0371 27.5008 21.6501Z" stroke="#EA580C" stroke-width="4" stroke-linecap="round" stroke-linejoin="round"/>
</svg>
