<svg width="45" height="44" viewBox="0 0 45 44" fill="none" xmlns="http://www.w3.org/2000/svg">
<path d="M0.5 0H44.5V44H0.5V0Z" stroke="#E5E7EB"/>
<path d="M22.5 0C22.8954 0 23.2907 0.0859375 23.6516 0.249219L39.8336 7.11563C41.7243 7.91484 43.1336 9.77969 43.125 12.0312C43.0821 20.5562 39.5758 36.1539 24.7688 43.2438C23.3336 43.9313 21.6664 43.9313 20.2313 43.2438C5.42426 36.1539 1.91801 20.5562 1.87504 12.0312C1.86645 9.77969 3.27582 7.91484 5.16645 7.11563L21.3571 0.249219C21.7094 0.0859375 22.1047 0 22.5 0ZM22.5 5.74063V38.225C34.3594 32.4844 37.5477 19.7742 37.625 12.1516L22.5 5.74063Z" fill="#2563EB"/>
</svg>
