<svg width="124" height="20" viewBox="0 0 124 20" fill="none" xmlns="http://www.w3.org/2000/svg">
<path d="M11.0881 0.703046C10.8873 0.273407 10.4631 0 9.99728 0C9.53142 0 9.11101 0.273407 8.90649 0.703046L6.47114 5.87044L1.03233 6.69847C0.577834 6.76877 0.199086 7.09686 0.05895 7.54603C-0.0811866 7.9952 0.0324375 8.49124 0.35816 8.82323L4.30471 12.8501L3.37299 18.5409C3.29724 19.0096 3.48661 19.4861 3.86157 19.7634C4.23653 20.0407 4.73269 20.0759 5.14174 19.8532L10.0011 17.1778L14.8604 19.8532C15.2694 20.0759 15.7656 20.0446 16.1406 19.7634C16.5155 19.4822 16.7049 19.0096 16.6291 18.5409L15.6936 12.8501L19.6402 8.82323C19.9659 8.49124 20.0833 7.9952 19.9394 7.54603C19.7955 7.09686 19.4205 6.76877 18.966 6.69847L13.5234 5.87044L11.0881 0.703046Z" fill="#AC602A"/>
<path d="M37.0881 0.703046C36.8873 0.273407 36.4631 0 35.9973 0C35.5314 0 35.111 0.273407 34.9065 0.703046L32.4711 5.87044L27.0323 6.69847C26.5778 6.76877 26.1991 7.09686 26.0589 7.54603C25.9188 7.9952 26.0324 8.49124 26.3582 8.82323L30.3047 12.8501L29.373 18.5409C29.2972 19.0096 29.4866 19.4861 29.8616 19.7634C30.2365 20.0407 30.7327 20.0759 31.1417 19.8532L36.0011 17.1778L40.8604 19.8532C41.2694 20.0759 41.7656 20.0446 42.1406 19.7634C42.5155 19.4822 42.7049 19.0096 42.6291 18.5409L41.6936 12.8501L45.6402 8.82323C45.9659 8.49124 46.0833 7.9952 45.9394 7.54603C45.7955 7.09686 45.4205 6.76877 44.966 6.69847L39.5234 5.87044L37.0881 0.703046Z" fill="#AC602A"/>
<path d="M63.0881 0.703046C62.8873 0.273407 62.4631 0 61.9973 0C61.5314 0 61.111 0.273407 60.9065 0.703046L58.4711 5.87044L53.0323 6.69847C52.5778 6.76877 52.1991 7.09686 52.0589 7.54603C51.9188 7.9952 52.0324 8.49124 52.3582 8.82323L56.3047 12.8501L55.373 18.5409C55.2972 19.0096 55.4866 19.4861 55.8616 19.7634C56.2365 20.0407 56.7327 20.0759 57.1417 19.8532L62.0011 17.1778L66.8604 19.8532C67.2694 20.0759 67.7656 20.0446 68.1406 19.7634C68.5155 19.4822 68.7049 19.0096 68.6291 18.5409L67.6936 12.8501L71.6402 8.82323C71.9659 8.49124 72.0833 7.9952 71.9394 7.54603C71.7955 7.09686 71.4205 6.76877 70.966 6.69847L65.5234 5.87044L63.0881 0.703046Z" fill="#AC602A"/>
<path d="M89.0881 0.703046C88.8873 0.273407 88.4631 0 87.9973 0C87.5314 0 87.111 0.273407 86.9065 0.703046L84.4711 5.87044L79.0323 6.69847C78.5778 6.76877 78.1991 7.09686 78.0589 7.54603C77.9188 7.9952 78.0324 8.49124 78.3582 8.82323L82.3047 12.8501L81.373 18.5409C81.2972 19.0096 81.4866 19.4861 81.8616 19.7634C82.2365 20.0407 82.7327 20.0759 83.1417 19.8532L88.0011 17.1778L92.8604 19.8532C93.2694 20.0759 93.7656 20.0446 94.1406 19.7634C94.5155 19.4822 94.7049 19.0096 94.6291 18.5409L93.6936 12.8501L97.6402 8.82323C97.9659 8.49124 98.0833 7.9952 97.9394 7.54603C97.7955 7.09686 97.4205 6.76877 96.966 6.69847L91.5234 5.87044L89.0881 0.703046Z" fill="#AC602A"/>
<path d="M114.182 1.12635L114.183 1.12936L116.619 6.29675L116.846 6.77889L117.373 6.85906L122.813 7.68672C122.813 7.68675 122.814 7.68679 122.814 7.68683C122.878 7.69711 122.954 7.74807 122.987 7.85117L123.939 7.54603L122.987 7.85117C123.019 7.95005 122.99 8.05819 122.926 8.1229L122.926 8.12328L118.979 12.1502L118.625 12.5122L118.707 13.0123L119.642 18.7004C119.642 18.7007 119.642 18.701 119.642 18.7012C119.659 18.8074 119.614 18.9082 119.541 18.9634C119.485 19.0053 119.411 19.0138 119.34 18.9756C119.339 18.9754 119.339 18.9751 119.338 18.9749L114.483 16.3018L114.001 16.0362L113.519 16.3018L108.664 18.9749C108.663 18.9751 108.663 18.9754 108.662 18.9756C108.597 19.0108 108.519 19.0062 108.456 18.9594C108.391 18.9113 108.342 18.8114 108.36 18.7011C108.36 18.7009 108.36 18.7006 108.36 18.7004L109.292 13.0117L109.373 12.5119L109.019 12.1502L105.072 8.12328L105.072 8.1229C105.013 8.06266 104.979 7.95327 105.014 7.84386C105.042 7.75206 105.115 7.6979 105.185 7.68682C105.185 7.68679 105.185 7.68675 105.185 7.68672L110.622 6.85905L111.149 6.77883L111.376 6.29675L113.809 1.13287C113.81 1.13248 113.81 1.13209 113.81 1.1317C113.856 1.03629 113.934 1 113.997 1C114.066 1 114.142 1.04041 114.182 1.12635Z" stroke="#787676" stroke-width="2"/>
</svg>
