<svg width="302" height="35" viewBox="0 0 302 35" fill="none" xmlns="http://www.w3.org/2000/svg">
<path d="M18.6326 1L23.914 11.6994L35.7243 13.4256L27.1785 21.7492L29.1953 33.5083L18.6326 27.9535L8.07002 33.5083L10.0868 21.7492L1.54102 13.4256L13.3513 11.6994L18.6326 1Z" stroke="#0D0C22" stroke-width="2" stroke-linecap="round" stroke-linejoin="round"/>
<path d="M84.8162 1L90.0976 11.6994L101.908 13.4256L93.3621 21.7492L95.3789 33.5083L84.8162 27.9535L74.2536 33.5083L76.2704 21.7492L67.7246 13.4256L79.5349 11.6994L84.8162 1Z" stroke="#0D0C22" stroke-width="2" stroke-linecap="round" stroke-linejoin="round"/>
<path d="M151 1L156.281 11.6994L168.091 13.4256L159.546 21.7492L161.562 33.5083L151 27.9535L140.437 33.5083L142.454 21.7492L133.908 13.4256L145.719 11.6994L151 1Z" stroke="#0D0C22" stroke-width="2" stroke-linecap="round" stroke-linejoin="round"/>
<path d="M217.181 1L222.463 11.6994L234.273 13.4256L225.727 21.7492L227.744 33.5083L217.181 27.9535L206.619 33.5083L208.636 21.7492L200.09 13.4256L211.9 11.6994L217.181 1Z" stroke="#0D0C22" stroke-width="2" stroke-linecap="round" stroke-linejoin="round"/>
<path d="M283.365 1L288.646 11.6994L300.457 13.4256L291.911 21.7492L293.928 33.5083L283.365 27.9535L272.802 33.5083L274.819 21.7492L266.273 13.4256L278.084 11.6994L283.365 1Z" stroke="#0D0C22" stroke-width="2" stroke-linecap="round" stroke-linejoin="round"/>
</svg>
