<svg width="42" height="42" viewBox="0 0 42 42" fill="none" xmlns="http://www.w3.org/2000/svg">
<path d="M0 8C0 3.58172 3.58172 0 8 0H34C38.4183 0 42 3.58172 42 8V34C42 38.4183 38.4183 42 34 42H8C3.58172 42 0 38.4183 0 34V8Z" fill="#FFFBEB"/>
<path d="M0 8C0 3.58172 3.58172 0 8 0H34C38.4183 0 42 3.58172 42 8V34C42 38.4183 38.4183 42 34 42H8C3.58172 42 0 38.4183 0 34V8Z" stroke="#E5E7EB"/>
<path d="M21.0881 11.203C20.8873 10.7734 20.4631 10.5 19.9973 10.5C19.5314 10.5 19.111 10.7734 18.9065 11.203L16.4711 16.3704L11.0323 17.1985C10.5778 17.2688 10.1991 17.5969 10.0589 18.046C9.91881 18.4952 10.0324 18.9912 10.3582 19.3232L14.3047 23.3501L13.373 29.0409C13.2972 29.5096 13.4866 29.9861 13.8616 30.2634C14.2365 30.5407 14.7327 30.5759 15.1417 30.3532L20.0011 27.6778L24.8604 30.3532C25.2694 30.5759 25.7656 30.5446 26.1406 30.2634C26.5155 29.9822 26.7049 29.5096 26.6291 29.0409L25.6936 23.3501L29.6402 19.3232C29.9659 18.9912 30.0833 18.4952 29.9394 18.046C29.7955 17.5969 29.4205 17.2688 28.966 17.1985L23.5234 16.3704L21.0881 11.203Z" fill="#F59E0B"/>
</svg>
