<svg width="61" height="67" viewBox="0 0 61 67" fill="none" xmlns="http://www.w3.org/2000/svg">
<path d="M20.5 48.4994C18.1667 48.4994 16.1944 47.6938 14.5833 46.0827C12.9722 44.4716 12.1667 42.4994 12.1667 40.166C12.1667 37.8327 12.9722 35.8605 14.5833 34.2494C16.1944 32.6382 18.1667 31.8327 20.5 31.8327C22.8333 31.8327 24.8056 32.6382 26.4167 34.2494C28.0278 35.8605 28.8333 37.8327 28.8333 40.166C28.8333 42.4994 28.0278 44.4716 26.4167 46.0827C24.8056 47.6938 22.8333 48.4994 20.5 48.4994ZM7.16667 66.8327C5.33333 66.8327 3.76389 66.1799 2.45833 64.8744C1.15278 63.5688 0.5 61.9994 0.5 60.166V13.4993C0.5 11.666 1.15278 10.0966 2.45833 8.79102C3.76389 7.48546 5.33333 6.83268 7.16667 6.83268H10.5V0.166016H17.1667V6.83268H43.8333V0.166016H50.5V6.83268H53.8333C55.6667 6.83268 57.2361 7.48546 58.5417 8.79102C59.8472 10.0966 60.5 11.666 60.5 13.4993V60.166C60.5 61.9994 59.8472 63.5688 58.5417 64.8744C57.2361 66.1799 55.6667 66.8327 53.8333 66.8327H7.16667ZM7.16667 60.166H53.8333V26.8327H7.16667V60.166Z" fill="#04333A"/>
</svg>
