<svg width="23" height="22" viewBox="0 0 23 22" fill="none" xmlns="http://www.w3.org/2000/svg">
<path d="M12.7553 0.773438C12.5252 0.300781 12.0391 0 11.5053 0C10.9714 0 10.4896 0.300781 10.2553 0.773438L7.46447 6.4582L1.23183 7.36914C0.711 7.44648 0.276972 7.80742 0.116382 8.30156C-0.0442081 8.7957 0.0860001 9.34141 0.459264 9.70664L4.98183 14.1367L3.91412 20.3973C3.82732 20.9129 4.04433 21.4371 4.47402 21.7422C4.90371 22.0473 5.47228 22.0859 5.94103 21.841L11.5096 18.8977L17.0782 21.841C17.5469 22.0859 18.1155 22.0516 18.5452 21.7422C18.9749 21.4328 19.1919 20.9129 19.1051 20.3973L18.033 14.1367L22.5556 9.70664C22.9289 9.34141 23.0634 8.7957 22.8985 8.30156C22.7336 7.80742 22.3039 7.44648 21.783 7.36914L15.5461 6.4582L12.7553 0.773438Z" fill="#FBBF24"/>
</svg>
