<svg width="29" height="20" viewBox="0 0 29 20" fill="none" xmlns="http://www.w3.org/2000/svg">
<path d="M19 7L25.8295 3.586C26.0581 3.47175 26.3122 3.41782 26.5675 3.42932C26.8228 3.44082 27.071 3.51737 27.2884 3.65171C27.5058 3.78605 27.6853 3.97371 27.8099 4.19691C27.9344 4.4201 27.9999 4.67141 28 4.927V15.073C27.9999 15.3286 27.9344 15.5799 27.8099 15.8031C27.6853 16.0263 27.5058 16.214 27.2884 16.3483C27.071 16.4826 26.8228 16.5592 26.5675 16.5707C26.3122 16.5822 26.0581 16.5282 25.8295 16.414L19 13V7ZM1 4C1 3.20435 1.31607 2.44129 1.87868 1.87868C2.44129 1.31607 3.20435 1 4 1H16C16.7956 1 17.5587 1.31607 18.1213 1.87868C18.6839 2.44129 19 3.20435 19 4V16C19 16.7956 18.6839 17.5587 18.1213 18.1213C17.5587 18.6839 16.7956 19 16 19H4C3.20435 19 2.44129 18.6839 1.87868 18.1213C1.31607 17.5587 1 16.7956 1 16V4Z" stroke="#EB7476" stroke-width="2" stroke-linecap="round" stroke-linejoin="round"/>
</svg>
