<svg width="21" height="20" viewBox="0 0 21 20" fill="none" xmlns="http://www.w3.org/2000/svg">
<path d="M13.0565 6H13.0666M1 4C1 3.20435 1.31756 2.44129 1.88282 1.87868C2.44808 1.31607 3.21473 1 4.01413 1H16.0706C16.87 1 17.6367 1.31607 18.202 1.87868C18.7672 2.44129 19.0848 3.20435 19.0848 4V16C19.0848 16.7956 18.7672 17.5587 18.202 18.1213C17.6367 18.6839 16.87 19 16.0706 19H4.01413C3.21473 19 2.44808 18.6839 1.88282 18.1213C1.31756 17.5587 1 16.7956 1 16V4Z" stroke="#039C15" stroke-width="2" stroke-linecap="round" stroke-linejoin="round"/>
<path d="M1 13.9979L6.02355 8.99787C6.95592 8.10487 8.10531 8.10487 9.03768 8.99787L14.0612 13.9979" stroke="#039C15" stroke-width="2" stroke-linecap="round" stroke-linejoin="round"/>
<path d="M12.0508 11.9998L13.0555 10.9998C13.9879 10.1068 15.1372 10.1068 16.0696 10.9998L19.0837 13.9998" stroke="#039C15" stroke-width="2" stroke-linecap="round" stroke-linejoin="round"/>
</svg>
