<svg width="42" height="43" viewBox="0 0 42 43" fill="none" xmlns="http://www.w3.org/2000/svg">
<path d="M0 8.5C0 4.08172 3.58172 0.5 8 0.5H34C38.4183 0.5 42 4.08172 42 8.5V34.5C42 38.9183 38.4183 42.5 34 42.5H8C3.58172 42.5 0 38.9183 0 34.5V8.5Z" fill="#EFF6FF"/>
<path d="M0 8.5C0 4.08172 3.58172 0.5 8 0.5H34C38.4183 0.5 42 4.08172 42 8.5V34.5C42 38.9183 38.4183 42.5 34 42.5H8C3.58172 42.5 0 38.9183 0 34.5V8.5Z" stroke="#E6EAEA"/>
<path d="M10.025 11C8.90703 11 8 11.9238 8 13.0625V30.9375C8 32.0762 8.90703 33 10.025 33H14.075V29.5625C14.075 28.4238 14.982 27.5 16.1 27.5C17.218 27.5 18.125 28.4238 18.125 29.5625V33H21.9177C21.6519 32.5617 21.5 32.0461 21.5 31.4918C21.5 29.4766 22.5884 27.7191 24.2 26.7996V22.6789V13.0625C24.2 11.9238 23.293 11 22.175 11H10.025ZM10.7 21.3125C10.7 20.9344 11.0038 20.625 11.375 20.625H12.725C13.0963 20.625 13.4 20.9344 13.4 21.3125V22.6875C13.4 23.0656 13.0963 23.375 12.725 23.375H11.375C11.0038 23.375 10.7 23.0656 10.7 22.6875V21.3125ZM15.425 20.625H16.775C17.1462 20.625 17.45 20.9344 17.45 21.3125V22.6875C17.45 23.0656 17.1462 23.375 16.775 23.375H15.425C15.0538 23.375 14.75 23.0656 14.75 22.6875V21.3125C14.75 20.9344 15.0538 20.625 15.425 20.625ZM18.8 21.3125C18.8 20.9344 19.1038 20.625 19.475 20.625H20.825C21.1962 20.625 21.5 20.9344 21.5 21.3125V22.6875C21.5 23.0656 21.1962 23.375 20.825 23.375H19.475C19.1038 23.375 18.8 23.0656 18.8 22.6875V21.3125ZM11.375 15.125H12.725C13.0963 15.125 13.4 15.4344 13.4 15.8125V17.1875C13.4 17.5656 13.0963 17.875 12.725 17.875H11.375C11.0038 17.875 10.7 17.5656 10.7 17.1875V15.8125C10.7 15.4344 11.0038 15.125 11.375 15.125ZM14.75 15.8125C14.75 15.4344 15.0538 15.125 15.425 15.125H16.775C17.1462 15.125 17.45 15.4344 17.45 15.8125V17.1875C17.45 17.5656 17.1462 17.875 16.775 17.875H15.425C15.0538 17.875 14.75 17.5656 14.75 17.1875V15.8125ZM19.475 15.125H20.825C21.1962 15.125 21.5 15.4344 21.5 15.8125V17.1875C21.5 17.5656 21.1962 17.875 20.825 17.875H19.475C19.1038 17.875 18.8 17.5656 18.8 17.1875V15.8125C18.8 15.4344 19.1038 15.125 19.475 15.125ZM32.3 22.6875C32.3 21.7758 31.9444 20.9015 31.3115 20.2568C30.6786 19.6122 29.8201 19.25 28.925 19.25C28.0299 19.25 27.1714 19.6122 26.5385 20.2568C25.9056 20.9015 25.55 21.7758 25.55 22.6875C25.55 23.5992 25.9056 24.4735 26.5385 25.1182C27.1714 25.7628 28.0299 26.125 28.925 26.125C29.8201 26.125 30.6786 25.7628 31.3115 25.1182C31.9444 24.4735 32.3 23.5992 32.3 22.6875ZM22.85 31.5004C22.85 32.3297 23.5081 33 24.3223 33H33.5277C34.3419 33 35 32.3297 35 31.5004C35 29.2918 33.2408 27.5 31.0723 27.5H26.7777C24.6092 27.5 22.85 29.2918 22.85 31.5004Z" fill="#043137"/>
</svg>
