<svg width="45" height="53" viewBox="0 0 45 53" fill="none" xmlns="http://www.w3.org/2000/svg">
<rect x="0.5" y="0.5" width="44" height="52" rx="11.5" stroke="#4B5563"/>
<path d="M18.6393 14.8643L18.2857 15.5625H13.5714C12.7022 15.5625 12 16.2607 12 17.125C12 17.9893 12.7022 18.6875 13.5714 18.6875H32.4286C33.2978 18.6875 34 17.9893 34 17.125C34 16.2607 33.2978 15.5625 32.4286 15.5625H27.7143L27.3607 14.8643C27.0955 14.332 26.5504 14 25.9563 14H20.0438C19.4496 14 18.9045 14.332 18.6393 14.8643ZM32.4286 20.25H13.5714L14.6125 36.8027C14.6911 38.0381 15.7223 39 16.9647 39H29.0353C30.2777 39 31.3089 38.0381 31.3875 36.8027L32.4286 20.25Z" fill="#DC2626"/>
</svg>
