<svg width="42" height="43" viewBox="0 0 42 43" fill="none" xmlns="http://www.w3.org/2000/svg">
<path d="M0 8.5C0 4.08172 3.58172 0.5 8 0.5H34C38.4183 0.5 42 4.08172 42 8.5V34.5C42 38.9183 38.4183 42.5 34 42.5H8C3.58172 42.5 0 38.9183 0 34.5V8.5Z" fill="#EFF6FF"/>
<path d="M0 8.5C0 4.08172 3.58172 0.5 8 0.5H34C38.4183 0.5 42 4.08172 42 8.5V34.5C42 38.9183 38.4183 42.5 34 42.5H8C3.58172 42.5 0 38.9183 0 34.5V8.5Z" stroke="#E5E7EB"/>
<g clip-path="url(#clip0_1111_1782)">
<path d="M12 10H30V34H12V10Z" stroke="#E5E7EB"/>
<g clip-path="url(#clip1_1111_1782)">
<g clip-path="url(#clip2_1111_1782)">
<path d="M21 10C19.0406 10 17.3719 11.2516 16.7578 13H15C13.3453 13 12 14.3453 12 16V31C12 32.6547 13.3453 34 15 34H27C28.6547 34 30 32.6547 30 31V16C30 14.3453 28.6547 13 27 13H25.2422C24.6281 11.2516 22.9594 10 21 10ZM21 13C21.3978 13 21.7794 13.158 22.0607 13.4393C22.342 13.7206 22.5 14.1022 22.5 14.5C22.5 14.8978 22.342 15.2794 22.0607 15.5607C21.7794 15.842 21.3978 16 21 16C20.6022 16 20.2206 15.842 19.9393 15.5607C19.658 15.2794 19.5 14.8978 19.5 14.5C19.5 14.1022 19.658 13.7206 19.9393 13.4393C20.2206 13.158 20.6022 13 21 13ZM15.375 22.75C15.375 22.4516 15.4935 22.1655 15.7045 21.9545C15.9155 21.7435 16.2016 21.625 16.5 21.625C16.7984 21.625 17.0845 21.7435 17.2955 21.9545C17.5065 22.1655 17.625 22.4516 17.625 22.75C17.625 23.0484 17.5065 23.3345 17.2955 23.5455C17.0845 23.7565 16.7984 23.875 16.5 23.875C16.2016 23.875 15.9155 23.7565 15.7045 23.5455C15.4935 23.3345 15.375 23.0484 15.375 22.75ZM20.25 22H26.25C26.6625 22 27 22.3375 27 22.75C27 23.1625 26.6625 23.5 26.25 23.5H20.25C19.8375 23.5 19.5 23.1625 19.5 22.75C19.5 22.3375 19.8375 22 20.25 22ZM15.375 27.25C15.375 26.9516 15.4935 26.6655 15.7045 26.4545C15.9155 26.2435 16.2016 26.125 16.5 26.125C16.7984 26.125 17.0845 26.2435 17.2955 26.4545C17.5065 26.6655 17.625 26.9516 17.625 27.25C17.625 27.5484 17.5065 27.8345 17.2955 28.0455C17.0845 28.2565 16.7984 28.375 16.5 28.375C16.2016 28.375 15.9155 28.2565 15.7045 28.0455C15.4935 27.8345 15.375 27.5484 15.375 27.25ZM19.5 27.25C19.5 26.8375 19.8375 26.5 20.25 26.5H26.25C26.6625 26.5 27 26.8375 27 27.25C27 27.6625 26.6625 28 26.25 28H20.25C19.8375 28 19.5 27.6625 19.5 27.25Z" fill="#3B82F6"/>
</g>
</g>
</g>
<defs>
<clipPath id="clip0_1111_1782">
<path d="M12 12H29.5V32H12V12Z" fill="white"/>
</clipPath>
<clipPath id="clip1_1111_1782">
<rect width="18" height="24" fill="white" transform="translate(12 10)"/>
</clipPath>
<clipPath id="clip2_1111_1782">
<path d="M12 10H30V34H12V10Z" fill="white"/>
</clipPath>
</defs>
</svg>
