<svg width="18" height="23" viewBox="0 0 18 23" fill="none" xmlns="http://www.w3.org/2000/svg">
<path d="M0 0.00170898H18V23.0017H0V0.00170898Z" stroke="#E5E7EB"/>
<path d="M10.4018 4.569V12.492C10.4018 13.0698 9.93496 13.5366 9.35714 13.5366C8.77932 13.5366 8.3125 13.0698 8.3125 12.492V4.569L5.91635 6.96515C5.50829 7.37321 4.84559 7.37321 4.43753 6.96515C4.02946 6.55709 4.02946 5.89439 4.43753 5.48633L8.6161 1.30776C9.02416 0.899693 9.68686 0.899693 10.0949 1.30776L14.2735 5.48633C14.6816 5.89439 14.6816 6.55709 14.2735 6.96515C13.8654 7.37321 13.2027 7.37321 12.7947 6.96515L10.4018 4.569ZM3.08929 12.492H7.26786C7.26786 13.6443 8.20477 14.5812 9.35714 14.5812C10.5095 14.5812 11.4464 13.6443 11.4464 12.492H15.625C16.7774 12.492 17.7143 13.4289 17.7143 14.5812V15.6259C17.7143 16.7783 16.7774 17.7152 15.625 17.7152H3.08929C1.93691 17.7152 1 16.7783 1 15.6259V14.5812C1 13.4289 1.93691 12.492 3.08929 12.492ZM15.1027 15.8871C15.3105 15.8871 15.5098 15.8045 15.6567 15.6576C15.8036 15.5106 15.8862 15.3114 15.8862 15.1036C15.8862 14.8958 15.8036 14.6965 15.6567 14.5496C15.5098 14.4026 15.3105 14.3201 15.1027 14.3201C14.8949 14.3201 14.6956 14.4026 14.5487 14.5496C14.4017 14.6965 14.3192 14.8958 14.3192 15.1036C14.3192 15.3114 14.4017 15.5106 14.5487 15.6576C14.6956 15.8045 14.8949 15.8871 15.1027 15.8871Z" fill="#4B5563"/>
</svg>
