<svg width="42" height="43" viewBox="0 0 42 43" fill="none" xmlns="http://www.w3.org/2000/svg">
<path d="M0 8.5C0 4.08172 3.58172 0.5 8 0.5H34C38.4183 0.5 42 4.08172 42 8.5V34.5C42 38.9183 38.4183 42.5 34 42.5H8C3.58172 42.5 0 38.9183 0 34.5V8.5Z" fill="#EFF6FF"/>
<path d="M0 8.5C0 4.08172 3.58172 0.5 8 0.5H34C38.4183 0.5 42 4.08172 42 8.5V34.5C42 38.9183 38.4183 42.5 34 42.5H8C3.58172 42.5 0 38.9183 0 34.5V8.5Z" stroke="#E6EAEA"/>
<path d="M15.6016 15.1937L14.3271 18.8571H28.6729L27.3984 15.1937C27.1787 14.5652 26.5879 14.1429 25.9238 14.1429H17.0762C16.4121 14.1429 15.8213 14.5652 15.6016 15.1937ZM10.9336 19.0929L12.6523 14.1576C13.3115 12.267 15.084 11 17.0762 11H25.9238C27.916 11 29.6885 12.267 30.3477 14.1576L32.0664 19.0929C33.1992 19.5643 34 20.6888 34 22V29.0714V31.4286C34 32.2978 33.3018 33 32.4375 33H30.875C30.0107 33 29.3125 32.2978 29.3125 31.4286V29.0714H13.6875V31.4286C13.6875 32.2978 12.9893 33 12.125 33H10.5625C9.69824 33 9 32.2978 9 31.4286V29.0714V22C9 20.6888 9.80078 19.5643 10.9336 19.0929ZM15.25 23.5714C15.25 23.1547 15.0854 22.755 14.7924 22.4603C14.4993 22.1656 14.1019 22 13.6875 22C13.2731 22 12.8757 22.1656 12.5826 22.4603C12.2896 22.755 12.125 23.1547 12.125 23.5714C12.125 23.9882 12.2896 24.3879 12.5826 24.6826C12.8757 24.9773 13.2731 25.1429 13.6875 25.1429C14.1019 25.1429 14.4993 24.9773 14.7924 24.6826C15.0854 24.3879 15.25 23.9882 15.25 23.5714ZM29.3125 25.1429C29.7269 25.1429 30.1243 24.9773 30.4174 24.6826C30.7104 24.3879 30.875 23.9882 30.875 23.5714C30.875 23.1547 30.7104 22.755 30.4174 22.4603C30.1243 22.1656 29.7269 22 29.3125 22C28.8981 22 28.5007 22.1656 28.2076 22.4603C27.9146 22.755 27.75 23.1547 27.75 23.5714C27.75 23.9882 27.9146 24.3879 28.2076 24.6826C28.5007 24.9773 28.8981 25.1429 29.3125 25.1429Z" fill="#04333A"/>
</svg>
