<svg width="32" height="30" viewBox="0 0 32 30" fill="none" xmlns="http://www.w3.org/2000/svg">
<path d="M0 0H32V30H0V0Z" stroke="#E5E7EB"/>
<path d="M4 1.875C1.79375 1.875 0 3.55664 0 5.625V24.375C0 26.4434 1.79375 28.125 4 28.125H28C30.2062 28.125 32 26.4434 32 24.375V11.25C32 9.18164 30.2062 7.5 28 7.5H5C4.45 7.5 4 7.07812 4 6.5625C4 6.04688 4.45 5.625 5 5.625H28C29.1063 5.625 30 4.78711 30 3.75C30 2.71289 29.1063 1.875 28 1.875H4ZM26 15.9375C26.5304 15.9375 27.0391 16.135 27.4142 16.4867C27.7893 16.8383 28 17.3152 28 17.8125C28 18.3098 27.7893 18.7867 27.4142 19.1383C27.0391 19.49 26.5304 19.6875 26 19.6875C25.4696 19.6875 24.9609 19.49 24.5858 19.1383C24.2107 18.7867 24 18.3098 24 17.8125C24 17.3152 24.2107 16.8383 24.5858 16.4867C24.9609 16.135 25.4696 15.9375 26 15.9375Z" fill="#043137"/>
</svg>
