<svg width="24" height="17" viewBox="0 0 24 17" fill="none" xmlns="http://www.w3.org/2000/svg">
<path d="M11.229 0.997039C11.6916 0.667931 12.3084 0.667931 12.771 0.997039C13.7087 1.64276 14.8548 2.08435 16.0009 2.08435C17.1219 2.08435 18.3097 1.63443 19.2266 0.997039C19.7225 0.642935 20.3976 0.672096 20.8602 1.06786C21.4604 1.5636 22.2147 1.9427 22.969 2.11767C23.6858 2.28431 24.1318 3.00085 23.9651 3.71739C23.7984 4.43393 23.0815 4.87968 22.3647 4.71305C21.3437 4.47559 20.4935 4.02567 19.9392 3.67156C18.7306 4.32145 17.3762 4.75054 16.0009 4.75054C14.6714 4.75054 13.4753 4.33811 12.6501 3.96318C12.4084 3.8507 12.1875 3.74238 12 3.6424C11.8125 3.74238 11.5957 3.85486 11.3499 3.96318C10.5247 4.33811 9.32859 4.75054 7.99914 4.75054C6.62385 4.75054 5.26939 4.32145 4.0608 3.67573C3.50235 4.02567 2.65633 4.47975 1.63528 4.71721C0.918457 4.88385 0.201637 4.43809 0.0349346 3.72155C-0.131768 3.00502 0.314161 2.28848 1.03098 2.12184C1.78114 1.9427 2.53964 1.5636 3.1356 1.06786C3.5982 0.672096 4.27334 0.647101 4.76928 0.997039C5.69448 1.63443 6.87807 2.08435 7.99914 2.08435C9.14522 2.08435 10.2913 1.64276 11.229 0.997039ZM12.771 12.9949C13.7087 13.6406 14.8548 14.0822 16.0009 14.0822C17.1219 14.0822 18.3097 13.6323 19.2266 12.9949C19.7225 12.6408 20.3976 12.67 20.8602 13.0657C21.4604 13.5615 22.2147 13.9406 22.969 14.1155C23.6858 14.2822 24.1318 14.9987 23.9651 15.7153C23.7984 16.4318 23.0815 16.8776 22.3647 16.7109C21.3437 16.4735 20.4935 16.0235 19.9392 15.6694C18.7306 16.3193 17.3762 16.7484 16.0009 16.7484C14.6714 16.7484 13.4753 16.336 12.6501 15.961C12.4084 15.8486 12.1875 15.7403 12 15.6403C11.8125 15.7403 11.5957 15.8527 11.3499 15.961C10.5247 16.336 9.32859 16.7484 7.99914 16.7484C6.62385 16.7484 5.26939 16.3193 4.0608 15.6736C3.50235 16.0235 2.65633 16.4776 1.63528 16.7151C0.918457 16.8817 0.201637 16.436 0.0349346 15.7194C-0.131768 15.0029 0.314161 14.2863 1.03098 14.1197C1.78531 13.9447 2.53964 13.5656 3.13977 13.0699C3.60237 12.6783 4.27751 12.6491 4.77345 12.9991C5.69448 13.6323 6.87807 14.0822 7.99914 14.0822C9.14522 14.0822 10.2913 13.6406 11.229 12.9949C11.6916 12.6658 12.3084 12.6658 12.771 12.9949ZM12.771 6.99597C13.7087 7.64169 14.8548 8.08328 16.0009 8.08328C17.1219 8.08328 18.3097 7.63336 19.2266 6.99597C19.7225 6.64187 20.3976 6.67103 20.8602 7.06679C21.4604 7.56254 22.2147 7.94164 22.969 8.11661C23.6858 8.28324 24.1318 8.99978 23.9651 9.71632C23.7984 10.4329 23.0815 10.8786 22.3647 10.712C21.3437 10.4745 20.4935 10.0246 19.9392 9.6705C18.7306 10.3204 17.3762 10.7495 16.0009 10.7495C14.6714 10.7495 13.4753 10.337 12.6501 9.96211C12.4084 9.84963 12.1875 9.74132 12 9.64134C11.8125 9.74132 11.5957 9.8538 11.3499 9.96211C10.5247 10.337 9.32859 10.7495 7.99914 10.7495C6.62385 10.7495 5.26939 10.3204 4.0608 9.67466C3.50235 10.0246 2.65633 10.4787 1.63528 10.7161C0.918457 10.8828 0.201637 10.437 0.0349346 9.72049C-0.131768 9.00395 0.314161 8.28741 1.03098 8.12077C1.78531 7.9458 2.53964 7.5667 3.13977 7.07096C3.60237 6.6752 4.27751 6.6502 4.77345 7.00014C5.69448 7.63336 6.87807 8.08328 7.99914 8.08328C9.14522 8.08328 10.2913 7.64169 11.229 6.99597C11.6916 6.66686 12.3084 6.66686 12.771 6.99597Z" fill="#043137"/>
</svg>
